<svg id="svg" version="1.1" xmlns="http://www.w3.org/2000/svg" xmlns:xlink="http://www.w3.org/1999/xlink" width="400" height="160" viewBox="0, 0, 400,160"><g id="svgg"><path id="path0" d="M53.864 39.203 C 53.630 39.436,53.606 39.667,53.816 39.667 C 53.968 39.667,54.220 39.164,54.118 39.062 C 54.087 39.031,53.972 39.094,53.864 39.203 M68.000 41.734 C 68.000 41.771,68.233 41.882,68.519 41.982 C 68.970 42.139,69.011 42.130,68.832 41.914 C 68.651 41.697,68.000 41.555,68.000 41.734 M78.500 46.667 C 78.500 46.758,78.654 46.833,78.843 46.833 C 79.032 46.833,79.140 46.758,79.083 46.667 C 79.027 46.575,78.872 46.500,78.740 46.500 C 78.608 46.500,78.500 46.575,78.500 46.667 M82.594 48.149 C 82.543 48.231,82.625 48.346,82.775 48.403 C 83.099 48.528,83.243 48.425,83.090 48.178 C 82.956 47.961,82.719 47.947,82.594 48.149 M84.917 49.833 C 84.860 49.925,84.968 50.000,85.157 50.000 C 85.346 50.000,85.500 49.925,85.500 49.833 C 85.500 49.742,85.392 49.667,85.260 49.667 C 85.128 49.667,84.973 49.742,84.917 49.833 M86.750 50.500 C 86.627 50.699,86.954 50.699,87.417 50.500 C 87.714 50.372,87.702 50.356,87.302 50.345 C 87.055 50.339,86.807 50.408,86.750 50.500 M116.244 70.742 C 116.146 71.526,116.019 71.765,115.274 72.569 C 114.481 73.425,114.055 73.708,112.000 74.742 C 111.587 74.950,111.025 75.241,110.750 75.390 C 110.475 75.539,109.987 75.779,109.667 75.924 C 109.346 76.069,108.033 76.708,106.750 77.344 C 105.466 77.980,104.332 78.500,104.230 78.500 C 104.128 78.500,103.860 78.645,103.634 78.823 C 103.408 79.001,103.005 79.200,102.737 79.265 C 102.469 79.330,102.038 79.560,101.779 79.775 C 101.520 79.991,101.151 80.167,100.959 80.167 C 100.767 80.167,100.491 80.269,100.346 80.395 C 100.202 80.521,99.446 80.905,98.667 81.250 C 97.888 81.595,97.138 81.972,97.000 82.090 C 96.862 82.207,96.439 82.385,96.059 82.486 C 95.679 82.587,95.327 82.775,95.278 82.903 C 95.229 83.031,94.940 83.189,94.636 83.255 C 94.332 83.321,93.896 83.506,93.667 83.666 C 93.438 83.825,93.068 84.013,92.845 84.082 C 92.622 84.151,91.807 84.536,91.034 84.937 C 90.261 85.339,89.517 85.667,89.380 85.667 C 89.243 85.667,88.909 85.854,88.636 86.083 C 88.364 86.313,88.049 86.500,87.936 86.500 C 87.823 86.500,86.989 86.875,86.083 87.333 C 85.178 87.792,84.348 88.167,84.239 88.167 C 84.130 88.167,83.951 88.274,83.842 88.406 C 83.733 88.538,83.426 88.693,83.161 88.751 C 82.895 88.810,82.425 89.029,82.116 89.238 C 81.808 89.448,81.280 89.671,80.944 89.734 C 80.608 89.797,80.333 89.911,80.333 89.989 C 80.333 90.122,80.020 90.286,78.333 91.031 C 76.773 91.721,75.742 92.201,75.500 92.351 C 75.362 92.437,74.987 92.619,74.667 92.756 C 74.346 92.894,73.783 93.148,73.417 93.322 C 71.310 94.319,70.524 94.667,70.375 94.667 C 70.283 94.667,70.114 94.779,70.000 94.917 C 69.886 95.054,69.625 95.167,69.420 95.167 C 69.214 95.167,68.765 95.358,68.421 95.591 C 68.077 95.825,67.560 96.062,67.272 96.117 C 66.985 96.173,66.571 96.357,66.353 96.526 C 66.134 96.695,65.879 96.833,65.786 96.833 C 65.693 96.833,65.234 97.013,64.767 97.233 C 62.832 98.142,62.061 98.479,61.667 98.589 C 61.438 98.654,61.111 98.828,60.941 98.978 C 60.429 99.427,57.108 99.367,56.333 98.894 C 56.012 98.698,55.563 98.483,55.333 98.415 C 55.104 98.347,54.530 97.963,54.057 97.562 C 53.524 97.110,53.033 96.833,52.765 96.833 C 52.362 96.833,52.333 96.782,52.333 96.050 C 52.333 95.515,52.279 95.321,52.163 95.437 C 51.898 95.702,52.023 101.429,52.292 101.375 C 52.421 101.349,52.500 101.522,52.500 101.833 C 52.500 102.252,52.566 102.333,52.905 102.333 C 53.138 102.333,53.448 102.510,53.637 102.750 C 53.817 102.979,54.023 103.167,54.094 103.167 C 54.165 103.167,54.348 103.279,54.500 103.416 C 55.865 104.652,58.980 105.080,60.697 104.268 C 61.202 104.029,61.729 103.833,61.869 103.833 C 62.008 103.833,62.312 103.683,62.545 103.500 C 62.779 103.317,63.149 103.167,63.369 103.167 C 63.589 103.167,64.025 102.977,64.339 102.746 C 64.653 102.514,65.192 102.280,65.538 102.225 C 65.884 102.169,66.167 102.055,66.167 101.970 C 66.167 101.886,66.448 101.705,66.792 101.568 C 67.135 101.431,67.689 101.173,68.023 100.993 C 68.356 100.814,68.740 100.667,68.875 100.667 C 69.011 100.667,69.301 100.526,69.519 100.355 C 69.738 100.184,70.164 99.989,70.466 99.924 C 70.768 99.858,71.143 99.671,71.299 99.509 C 71.455 99.347,71.833 99.167,72.139 99.109 C 72.445 99.050,72.916 98.845,73.185 98.653 C 73.455 98.461,73.937 98.232,74.255 98.144 C 74.573 98.056,74.833 97.913,74.833 97.825 C 74.833 97.738,74.938 97.667,75.066 97.667 C 75.195 97.667,75.727 97.442,76.250 97.167 C 76.773 96.892,77.344 96.667,77.519 96.667 C 77.693 96.667,77.967 96.515,78.126 96.329 C 78.285 96.143,78.693 95.946,79.033 95.892 C 79.373 95.838,79.778 95.654,79.932 95.483 C 80.086 95.313,80.462 95.126,80.767 95.069 C 81.072 95.012,81.405 94.864,81.507 94.741 C 81.610 94.618,81.969 94.429,82.305 94.321 C 82.641 94.213,83.029 94.027,83.167 93.909 C 83.304 93.790,83.637 93.638,83.906 93.571 C 84.174 93.503,84.654 93.273,84.970 93.058 C 85.287 92.843,85.709 92.667,85.908 92.667 C 86.106 92.667,86.517 92.483,86.822 92.259 C 87.126 92.034,87.585 91.805,87.842 91.748 C 88.100 91.691,88.400 91.538,88.509 91.406 C 88.618 91.274,88.812 91.167,88.940 91.167 C 89.068 91.167,89.595 90.942,90.110 90.667 C 90.625 90.392,91.183 90.167,91.349 90.167 C 91.514 90.167,91.714 90.052,91.793 89.911 C 91.872 89.771,92.232 89.612,92.593 89.557 C 92.965 89.501,93.415 89.287,93.632 89.062 C 93.842 88.845,94.183 88.667,94.391 88.667 C 94.599 88.667,95.023 88.479,95.333 88.250 C 95.644 88.021,96.023 87.833,96.177 87.833 C 96.330 87.833,96.634 87.693,96.853 87.522 C 97.071 87.350,97.489 87.158,97.780 87.094 C 98.072 87.031,98.399 86.871,98.508 86.740 C 98.617 86.610,99.016 86.420,99.394 86.319 C 99.773 86.218,100.200 86.032,100.342 85.906 C 100.484 85.779,100.930 85.559,101.333 85.417 C 101.737 85.274,102.183 85.056,102.325 84.931 C 102.467 84.806,102.827 84.652,103.125 84.589 C 103.423 84.525,103.667 84.412,103.667 84.337 C 103.667 84.262,104.042 84.065,104.500 83.900 C 104.958 83.736,105.333 83.544,105.333 83.473 C 105.333 83.403,105.652 83.262,106.042 83.158 C 106.431 83.055,106.900 82.832,107.083 82.664 C 107.267 82.496,107.642 82.305,107.917 82.240 C 108.192 82.175,108.529 82.032,108.667 81.922 C 108.804 81.812,109.179 81.621,109.500 81.497 C 109.821 81.374,110.262 81.136,110.481 80.970 C 110.699 80.803,111.026 80.667,111.207 80.667 C 111.387 80.667,111.758 80.479,112.030 80.250 C 112.303 80.021,112.623 79.833,112.743 79.833 C 113.045 79.833,114.123 78.727,114.912 77.606 C 115.276 77.089,115.628 76.667,115.694 76.667 C 115.760 76.667,115.941 76.453,116.095 76.192 C 116.296 75.851,116.487 75.729,116.771 75.761 L 117.167 75.804 117.167 72.855 L 117.167 69.906 116.762 69.873 C 116.391 69.842,116.347 69.915,116.244 70.742 M116.333 94.000 C 116.333 94.215,116.418 94.333,116.542 94.292 C 116.656 94.253,116.750 94.122,116.750 94.000 C 116.750 93.878,116.656 93.747,116.542 93.708 C 116.418 93.667,116.333 93.785,116.333 94.000 M105.857 100.482 C 105.700 100.582,105.687 100.660,105.816 100.739 C 106.027 100.870,106.333 100.722,106.333 100.490 C 106.333 100.296,106.155 100.293,105.857 100.482 M89.800 107.867 C 89.956 108.022,90.044 108.022,90.200 107.867 C 90.356 107.711,90.311 107.667,90.000 107.667 C 89.689 107.667,89.644 107.711,89.800 107.867 M81.708 111.634 C 81.410 111.664,81.167 111.758,81.167 111.844 C 81.167 112.060,82.122 112.041,82.257 111.822 C 82.401 111.588,82.349 111.571,81.708 111.634 M61.667 121.333 C 61.667 121.425,61.817 121.500,62.000 121.500 C 62.183 121.500,62.333 121.425,62.333 121.333 C 62.333 121.242,62.183 121.167,62.000 121.167 C 61.817 121.167,61.667 121.242,61.667 121.333 " stroke="none" fill="#f8fafb" fill-rule="evenodd"></path><path id="path1" d="M56.500 38.184 C 56.500 38.286,56.397 38.329,56.270 38.281 C 56.055 38.198,55.667 38.446,55.667 38.667 C 55.667 38.722,55.852 38.767,56.078 38.767 C 56.304 38.767,56.454 38.732,56.411 38.689 C 56.368 38.646,56.457 38.473,56.609 38.305 C 56.774 38.123,56.808 38.000,56.692 38.000 C 56.587 38.000,56.500 38.083,56.500 38.184 M57.708 38.119 C 57.960 38.158,58.373 38.158,58.625 38.119 C 58.877 38.081,58.671 38.050,58.167 38.050 C 57.663 38.050,57.456 38.081,57.708 38.119 M59.583 38.192 C 59.767 38.293,60.010 38.492,60.125 38.636 C 60.313 38.871,60.333 38.870,60.333 38.621 C 60.333 38.336,59.856 37.996,59.469 38.005 C 59.349 38.008,59.400 38.092,59.583 38.192 M64.017 40.063 C 63.864 40.247,63.918 40.311,64.287 40.381 C 64.868 40.492,65.073 40.372,64.821 40.068 C 64.574 39.770,64.261 39.768,64.017 40.063 M66.576 41.011 C 66.462 41.196,66.999 41.687,67.188 41.570 C 67.247 41.534,67.388 41.615,67.502 41.752 C 67.615 41.888,67.867 41.999,68.062 41.997 C 68.326 41.996,68.358 41.958,68.189 41.851 C 67.998 41.729,67.998 41.693,68.189 41.617 C 68.327 41.562,68.277 41.521,68.064 41.513 C 67.870 41.506,67.521 41.350,67.288 41.167 C 66.801 40.783,66.727 40.767,66.576 41.011 M69.050 42.222 C 69.114 42.390,69.167 42.596,69.167 42.680 C 69.167 42.764,69.323 42.833,69.514 42.833 C 69.945 42.833,69.861 42.531,69.332 42.181 C 68.958 41.933,68.940 41.935,69.050 42.222 M52.114 42.609 C 51.849 42.873,51.985 95.495,52.250 95.394 C 52.528 95.287,52.638 43.142,52.361 42.706 C 52.287 42.590,52.176 42.546,52.114 42.609 M71.111 43.111 C 70.796 43.426,71.038 43.667,71.673 43.667 C 72.293 43.667,72.331 43.641,72.167 43.333 C 71.996 43.014,71.345 42.877,71.111 43.111 M72.505 43.993 C 72.177 44.201,72.326 44.320,73.014 44.400 C 73.711 44.482,73.911 44.378,73.654 44.068 C 73.432 43.801,72.868 43.764,72.505 43.993 M74.167 44.627 C 74.167 44.814,74.816 45.186,75.298 45.273 C 75.849 45.373,76.333 45.638,76.333 45.839 C 76.333 45.928,76.454 46.000,76.601 46.000 C 76.748 46.000,77.091 46.188,77.364 46.417 C 77.932 46.895,78.253 46.938,78.607 46.583 C 78.829 46.361,78.811 46.333,78.438 46.333 C 78.208 46.333,77.970 46.253,77.910 46.155 C 77.849 46.057,77.699 46.016,77.575 46.063 C 77.441 46.115,77.383 46.064,77.432 45.938 C 77.512 45.728,76.857 45.333,76.429 45.333 C 76.307 45.333,76.114 45.221,76.000 45.083 C 75.886 44.946,75.581 44.833,75.323 44.833 C 75.064 44.833,74.807 44.758,74.750 44.667 C 74.630 44.472,74.167 44.440,74.167 44.627 M79.459 47.249 C 79.539 47.667,81.000 47.925,81.000 47.520 C 81.000 47.233,80.495 46.962,80.135 47.057 C 79.933 47.110,79.680 47.080,79.573 46.992 C 79.432 46.874,79.401 46.944,79.459 47.249 M81.167 47.808 C 81.167 48.123,81.812 48.500,82.346 48.497 C 82.776 48.496,82.855 48.455,82.667 48.333 C 82.529 48.244,82.492 48.166,82.583 48.158 C 82.675 48.151,82.412 48.038,82.000 47.908 C 81.105 47.626,81.167 47.633,81.167 47.808 M83.185 48.417 C 83.172 48.700,83.566 49.112,83.973 49.242 C 84.328 49.354,84.345 49.334,84.175 49.016 C 84.072 48.824,83.847 48.667,83.675 48.667 C 83.502 48.667,83.323 48.573,83.277 48.458 C 83.231 48.344,83.189 48.325,83.185 48.417 M85.500 49.833 C 85.500 49.987,85.575 50.016,86.102 50.070 C 86.205 50.080,86.411 50.190,86.561 50.315 C 86.711 50.439,86.833 50.465,86.833 50.373 C 86.833 50.156,86.087 49.667,85.756 49.667 C 85.615 49.667,85.500 49.742,85.500 49.833 M87.474 50.302 C 87.643 50.418,87.581 50.490,87.224 50.592 C 86.756 50.727,86.759 50.730,87.417 50.823 C 87.895 50.890,88.130 51.023,88.248 51.292 C 88.338 51.498,88.519 51.667,88.649 51.667 C 88.831 51.667,88.815 51.590,88.582 51.332 C 88.416 51.148,88.196 50.830,88.094 50.625 C 87.992 50.421,87.760 50.230,87.579 50.201 C 87.335 50.162,87.308 50.188,87.474 50.302 M89.759 51.318 C 89.581 51.607,89.849 51.943,90.479 52.221 C 91.344 52.602,91.559 52.589,91.333 52.167 C 91.235 51.983,91.044 51.833,90.909 51.833 C 90.774 51.833,90.535 51.683,90.378 51.500 C 90.065 51.135,89.902 51.087,89.759 51.318 M91.944 52.778 C 91.703 53.019,91.851 53.193,92.115 52.979 C 92.276 52.848,92.347 52.834,92.279 52.947 C 92.202 53.076,92.320 53.162,92.622 53.197 C 92.953 53.235,93.098 53.356,93.137 53.625 C 93.173 53.880,93.304 54.000,93.545 54.000 C 93.859 54.000,93.824 53.922,93.250 53.333 C 92.639 52.707,92.201 52.521,91.944 52.778 M94.647 53.464 C 94.636 53.529,94.638 53.645,94.651 53.721 C 94.664 53.796,94.603 53.814,94.516 53.760 C 94.428 53.706,94.312 53.733,94.258 53.820 C 94.204 53.908,94.443 54.003,94.788 54.031 C 95.251 54.070,95.460 54.182,95.581 54.458 C 95.673 54.667,95.895 54.834,96.081 54.836 C 96.748 54.840,97.167 55.039,97.167 55.353 C 97.167 55.600,97.290 55.667,97.750 55.667 C 98.125 55.667,98.461 55.795,98.691 56.025 C 98.981 56.315,99.107 56.347,99.352 56.193 C 99.599 56.040,99.729 56.074,100.045 56.377 C 100.648 56.954,101.111 57.185,101.111 56.908 C 101.111 56.783,101.049 56.720,100.972 56.767 C 100.896 56.814,100.833 56.774,100.833 56.677 C 100.833 56.579,100.726 56.500,100.595 56.500 C 100.463 56.500,100.308 56.350,100.250 56.167 C 100.192 55.984,99.943 55.786,99.697 55.728 C 99.451 55.670,99.138 55.529,99.000 55.415 C 98.862 55.301,98.399 55.157,97.970 55.095 C 97.541 55.034,97.010 54.842,96.790 54.669 C 96.570 54.496,96.188 54.303,95.941 54.241 C 95.694 54.179,95.420 53.996,95.334 53.834 C 95.167 53.523,94.680 53.260,94.647 53.464 M101.417 57.000 C 101.473 57.092,101.686 57.167,101.889 57.167 C 102.265 57.167,102.886 57.725,102.709 57.903 C 102.655 57.956,102.880 58.000,103.209 58.000 C 104.011 58.000,104.333 58.143,104.333 58.499 C 104.333 58.723,104.518 58.823,105.083 58.908 C 105.496 58.970,105.833 59.103,105.833 59.205 C 105.833 59.306,105.886 59.336,105.951 59.271 C 106.098 59.124,105.002 58.168,104.686 58.167 C 104.559 58.167,104.286 57.984,104.079 57.761 C 103.828 57.490,103.589 57.385,103.360 57.445 C 103.156 57.498,102.816 57.392,102.524 57.184 C 102.024 56.828,101.229 56.696,101.417 57.000 M106.278 59.111 C 105.964 59.425,106.205 59.667,106.833 59.667 C 107.522 59.667,107.645 59.545,107.300 59.200 C 107.084 58.984,106.459 58.930,106.278 59.111 M107.606 60.083 C 107.645 60.185,108.144 60.365,108.713 60.483 C 109.283 60.600,109.804 60.784,109.872 60.890 C 109.956 61.022,109.995 61.005,109.996 60.833 C 109.999 60.389,108.943 59.813,108.204 59.857 C 107.792 59.881,107.562 59.968,107.606 60.083 M110.167 60.925 C 110.167 60.976,110.432 61.128,110.757 61.264 C 111.082 61.399,111.390 61.621,111.442 61.755 C 111.493 61.890,111.659 61.998,111.809 61.994 C 112.025 61.990,111.999 61.919,111.690 61.661 C 111.473 61.481,111.357 61.333,111.430 61.333 C 111.504 61.333,111.418 61.223,111.240 61.089 C 110.928 60.853,110.167 60.737,110.167 60.925 M112.926 62.443 C 113.152 62.686,113.380 62.843,113.432 62.790 C 113.547 62.675,112.900 62.000,112.675 62.000 C 112.587 62.000,112.701 62.199,112.926 62.443 M114.375 63.027 C 114.627 63.119,114.833 63.301,114.833 63.431 C 114.833 63.560,114.946 63.667,115.083 63.667 C 115.221 63.667,115.333 63.596,115.333 63.509 C 115.333 63.264,114.630 62.832,114.255 62.846 C 113.985 62.857,114.009 62.893,114.375 63.027 M139.667 63.199 C 139.667 63.520,139.692 63.532,139.875 63.301 C 139.990 63.157,140.196 62.998,140.333 62.949 C 140.471 62.900,140.378 62.854,140.125 62.846 C 139.760 62.836,139.667 62.908,139.667 63.199 M238.125 63.036 C 238.331 63.136,238.500 63.319,238.500 63.442 C 238.500 63.566,238.568 63.667,238.652 63.667 C 238.735 63.667,238.779 63.535,238.748 63.375 C 238.717 63.215,238.686 63.043,238.679 62.995 C 238.672 62.946,238.460 62.894,238.208 62.880 C 237.763 62.855,237.760 62.859,238.125 63.036 M310.000 62.990 C 310.000 63.076,310.075 63.193,310.167 63.250 C 310.276 63.317,310.333 68.530,310.333 78.343 C 310.333 88.323,310.390 93.333,310.502 93.333 C 310.817 93.333,310.716 63.054,310.400 62.933 C 310.050 62.799,310.000 62.806,310.000 62.990 M180.374 78.342 C 180.333 93.786,180.340 94.000,180.899 94.000 C 180.989 94.000,180.937 93.906,180.782 93.792 C 180.521 93.599,180.497 92.435,180.457 78.333 L 180.415 63.083 180.374 78.342 M139.742 69.667 C 139.742 73.012,139.764 74.381,139.791 72.708 C 139.819 71.035,139.819 68.298,139.791 66.625 C 139.764 64.952,139.742 66.321,139.742 69.667 M223.742 63.820 C 223.794 63.904,223.718 64.092,223.573 64.237 C 223.428 64.381,223.386 64.500,223.481 64.500 C 223.575 64.500,223.839 64.313,224.068 64.083 L 224.485 63.667 224.066 63.667 C 223.836 63.667,223.690 63.736,223.742 63.820 M240.125 64.432 C 240.240 64.485,240.333 64.672,240.333 64.847 C 240.333 65.023,240.406 65.167,240.495 65.167 C 240.584 65.167,240.613 65.053,240.560 64.915 C 240.487 64.726,240.541 64.691,240.773 64.773 C 240.985 64.848,241.030 64.828,240.917 64.710 C 240.825 64.615,240.563 64.492,240.333 64.437 C 240.104 64.382,240.010 64.379,240.125 64.432 M116.333 65.270 C 116.333 65.642,116.371 65.676,116.585 65.498 C 116.777 65.339,116.792 65.235,116.648 65.061 C 116.382 64.740,116.333 64.773,116.333 65.270 M283.115 67.186 C 282.857 67.450,282.721 67.667,282.813 67.667 C 282.905 67.667,283.027 67.590,283.085 67.497 C 283.143 67.404,283.251 67.366,283.326 67.412 C 283.440 67.483,283.724 66.825,283.618 66.735 C 283.599 66.718,283.372 66.921,283.115 67.186 M221.243 67.011 C 221.049 67.325,221.300 67.375,221.693 67.100 L 222.074 66.833 221.714 66.833 C 221.515 66.833,221.304 66.913,221.243 67.011 M237.169 68.458 C 237.174 68.702,237.495 69.099,237.497 68.865 C 237.499 68.735,237.584 68.698,237.708 68.772 C 237.850 68.857,237.843 68.807,237.688 68.615 C 237.452 68.325,237.165 68.238,237.169 68.458 M169.417 69.279 C 169.600 69.320,169.862 69.398,170.000 69.454 C 170.137 69.509,170.309 69.561,170.381 69.569 C 170.453 69.577,170.583 69.696,170.670 69.833 C 170.757 69.971,170.829 70.001,170.831 69.901 C 170.836 69.542,170.218 69.167,169.654 69.186 C 169.324 69.197,169.224 69.237,169.417 69.279 M199.048 69.319 C 198.666 69.602,198.875 69.981,199.270 69.722 C 199.488 69.579,199.667 69.408,199.667 69.342 C 199.667 69.198,199.233 69.183,199.048 69.319 M261.442 69.471 C 261.142 69.804,261.080 70.260,261.316 70.406 C 261.398 70.457,261.508 70.386,261.561 70.249 C 261.613 70.112,261.584 70.000,261.495 70.000 C 261.406 70.000,261.333 69.921,261.333 69.823 C 261.333 69.726,261.390 69.677,261.458 69.714 C 261.527 69.750,261.715 69.642,261.875 69.474 C 262.088 69.250,262.106 69.167,261.942 69.167 C 261.819 69.167,261.594 69.304,261.442 69.471 M320.708 69.288 C 320.391 69.399,320.460 69.671,320.792 69.617 C 321.368 69.524,321.778 69.208,321.317 69.212 C 321.097 69.213,320.823 69.248,320.708 69.288 M331.667 69.348 C 331.667 69.432,331.784 69.500,331.927 69.500 C 332.069 69.500,332.140 69.575,332.083 69.667 C 332.027 69.758,332.065 69.833,332.169 69.833 C 332.473 69.833,332.279 69.286,331.958 69.239 C 331.798 69.215,331.667 69.265,331.667 69.348 M156.691 70.474 C 156.447 70.735,156.110 70.928,155.942 70.903 C 155.774 70.879,155.676 70.898,155.724 70.946 C 155.772 70.995,155.744 71.214,155.660 71.434 C 155.577 71.654,155.546 71.833,155.592 71.833 C 155.637 71.833,155.746 71.645,155.834 71.415 C 155.921 71.186,156.051 71.010,156.121 71.025 C 156.192 71.040,156.381 71.004,156.542 70.943 C 156.702 70.883,156.951 70.796,157.094 70.751 C 157.237 70.706,157.303 70.585,157.239 70.483 C 157.176 70.380,157.227 70.231,157.354 70.151 C 157.543 70.031,157.544 70.005,157.359 70.003 C 157.235 70.001,156.934 70.213,156.691 70.474 M238.000 70.563 C 238.000 70.750,238.141 70.829,238.458 70.820 C 238.720 70.813,238.809 70.767,238.667 70.714 C 238.529 70.664,238.323 70.548,238.208 70.457 C 238.060 70.340,238.000 70.370,238.000 70.563 M213.167 70.967 C 213.167 71.192,213.552 71.500,213.825 71.494 C 213.992 71.490,213.941 71.409,213.683 71.266 C 213.390 71.104,213.346 71.020,213.516 70.952 C 213.686 70.885,213.671 70.856,213.458 70.846 C 213.298 70.839,213.167 70.893,213.167 70.967 M290.924 70.988 C 290.810 71.173,291.073 71.372,291.227 71.218 C 291.385 71.059,291.356 70.833,291.177 70.833 C 291.090 70.833,290.977 70.903,290.924 70.988 M154.905 71.852 C 154.842 71.954,154.884 72.095,154.998 72.165 C 155.158 72.265,155.154 72.313,154.977 72.383 C 154.852 72.433,154.835 72.480,154.938 72.487 C 155.041 72.494,155.223 72.383,155.341 72.241 C 155.519 72.026,155.515 71.990,155.320 72.032 C 155.190 72.060,155.102 71.990,155.125 71.875 C 155.177 71.617,155.058 71.604,154.905 71.852 M174.463 72.989 C 174.761 73.509,174.964 73.552,174.744 73.049 C 174.672 72.884,174.626 72.694,174.640 72.625 C 174.655 72.556,174.558 72.500,174.424 72.500 C 174.221 72.500,174.228 72.579,174.463 72.989 M316.500 72.750 C 316.500 72.887,316.579 73.000,316.677 73.000 C 316.774 73.000,316.811 72.931,316.759 72.848 C 316.707 72.764,316.759 72.657,316.874 72.611 C 317.000 72.560,316.968 72.521,316.792 72.513 C 316.631 72.506,316.500 72.612,316.500 72.750 M215.013 73.458 C 215.289 73.902,215.500 73.944,215.500 73.556 C 215.500 73.403,215.451 73.327,215.390 73.387 C 215.330 73.448,215.168 73.404,215.030 73.290 C 214.809 73.108,214.807 73.127,215.013 73.458 M166.910 81.583 C 166.910 85.800,166.932 87.501,166.958 85.364 C 166.985 83.226,166.985 79.776,166.958 77.697 C 166.932 75.618,166.910 77.367,166.910 81.583 M315.838 74.160 C 315.703 74.245,315.636 74.359,315.689 74.412 C 315.821 74.543,316.333 74.334,316.333 74.149 C 316.333 73.959,316.150 73.963,315.838 74.160 M175.034 74.947 C 175.190 74.988,175.366 75.172,175.424 75.357 C 175.566 75.803,175.680 75.670,175.557 75.201 C 175.494 74.957,175.341 74.840,175.106 74.853 C 174.836 74.867,174.818 74.890,175.034 74.947 M288.576 75.011 C 288.516 75.109,288.522 75.240,288.589 75.303 C 288.657 75.365,288.746 75.322,288.787 75.207 C 288.828 75.092,288.925 75.037,289.003 75.085 C 289.080 75.133,289.191 75.096,289.248 75.003 C 289.306 74.910,289.203 74.833,289.020 74.833 C 288.836 74.833,288.637 74.913,288.576 75.011 M231.033 75.867 C 230.815 76.085,230.756 76.837,230.958 76.828 C 231.200 76.818,231.724 76.336,231.614 76.225 C 231.553 76.164,231.586 76.013,231.689 75.890 C 231.933 75.596,231.326 75.574,231.033 75.867 M288.413 76.042 C 288.093 77.324,288.421 87.996,288.792 88.366 C 288.998 88.572,289.167 88.653,289.167 88.545 C 289.167 88.438,289.035 88.276,288.875 88.187 C 288.605 88.036,288.583 87.556,288.583 81.845 C 288.583 78.447,288.566 75.667,288.545 75.667 C 288.524 75.667,288.464 75.835,288.413 76.042 M116.333 76.630 C 116.333 76.914,116.156 77.267,115.875 77.544 C 114.935 78.471,114.667 78.790,114.667 78.979 C 114.667 79.086,114.479 79.259,114.250 79.364 C 114.021 79.468,113.833 79.646,113.833 79.759 C 113.833 79.950,113.612 80.090,112.000 80.916 C 111.679 81.081,111.304 81.310,111.167 81.426 C 111.029 81.541,110.600 81.720,110.214 81.823 C 109.827 81.926,109.446 82.126,109.367 82.267 C 109.288 82.408,108.915 82.565,108.538 82.616 C 108.120 82.672,107.707 82.863,107.481 83.104 C 107.276 83.322,106.937 83.500,106.727 83.500 C 106.518 83.500,106.212 83.641,106.048 83.814 C 105.884 83.987,105.511 84.179,105.220 84.241 C 104.928 84.304,104.601 84.462,104.492 84.593 C 104.383 84.724,103.984 84.914,103.606 85.015 C 103.227 85.116,102.782 85.342,102.619 85.516 C 102.443 85.703,102.095 85.833,101.774 85.833 C 101.398 85.833,101.113 85.964,100.864 86.250 C 100.627 86.524,100.328 86.667,99.996 86.667 C 99.707 86.667,99.450 86.771,99.397 86.909 C 99.346 87.042,99.029 87.240,98.694 87.350 C 98.358 87.459,97.904 87.688,97.686 87.858 C 97.467 88.028,97.087 88.167,96.840 88.167 C 96.583 88.167,96.232 88.336,96.019 88.563 C 95.793 88.804,95.380 88.995,94.962 89.051 C 94.585 89.101,94.212 89.258,94.133 89.400 C 94.054 89.541,93.673 89.741,93.286 89.845 C 92.900 89.948,92.449 90.175,92.285 90.350 C 92.121 90.524,91.814 90.667,91.602 90.667 C 91.391 90.667,91.047 90.815,90.837 90.996 C 90.628 91.178,90.209 91.373,89.906 91.430 C 89.603 91.486,89.226 91.676,89.068 91.850 C 88.911 92.024,88.625 92.168,88.433 92.169 C 87.826 92.173,87.333 92.364,87.333 92.596 C 87.333 92.719,87.015 92.912,86.625 93.025 C 86.235 93.138,85.738 93.366,85.519 93.532 C 85.301 93.698,84.992 93.833,84.833 93.833 C 84.675 93.833,84.349 93.988,84.108 94.177 C 83.868 94.366,83.402 94.564,83.071 94.618 C 82.741 94.671,82.433 94.813,82.387 94.933 C 82.341 95.053,81.894 95.271,81.394 95.416 C 80.894 95.562,80.444 95.784,80.396 95.911 C 80.347 96.038,79.995 96.195,79.613 96.259 C 79.230 96.324,78.826 96.507,78.715 96.666 C 78.603 96.826,78.270 97.004,77.975 97.063 C 77.680 97.122,77.321 97.273,77.178 97.398 C 77.034 97.522,76.627 97.718,76.272 97.832 C 75.918 97.945,75.487 98.180,75.314 98.353 C 75.135 98.532,74.767 98.667,74.457 98.667 C 74.107 98.667,73.844 98.777,73.720 98.977 C 73.613 99.148,73.193 99.371,72.786 99.473 C 72.379 99.576,71.956 99.769,71.845 99.902 C 71.734 100.036,71.409 100.197,71.123 100.260 C 70.837 100.323,70.501 100.475,70.377 100.599 C 70.253 100.723,69.864 100.902,69.512 100.997 C 69.160 101.092,68.786 101.273,68.681 101.399 C 68.576 101.526,68.153 101.714,67.742 101.818 C 67.330 101.922,66.845 102.155,66.663 102.337 C 66.461 102.539,66.109 102.667,65.756 102.667 C 65.353 102.667,65.126 102.765,65.004 102.993 C 64.907 103.174,64.573 103.367,64.253 103.427 C 63.936 103.486,63.522 103.669,63.333 103.833 C 63.144 103.997,62.725 104.181,62.403 104.242 C 62.080 104.302,61.667 104.479,61.486 104.634 C 60.573 105.417,56.095 105.361,55.112 104.554 C 54.853 104.341,54.534 104.167,54.404 104.167 C 54.273 104.167,54.167 104.102,54.167 104.023 C 54.167 103.789,52.869 102.959,52.683 103.073 C 52.581 103.137,52.469 102.843,52.401 102.335 C 52.101 100.069,52.000 101.898,52.040 108.906 C 52.068 113.828,52.142 116.500,52.250 116.500 C 52.353 116.501,52.434 115.415,52.462 113.667 L 52.508 110.833 52.909 110.833 C 53.135 110.833,53.448 111.010,53.630 111.241 C 55.287 113.347,60.145 114.005,61.702 112.334 C 61.873 112.150,62.179 111.998,62.381 111.995 C 62.584 111.992,63.050 111.805,63.417 111.579 C 63.783 111.353,64.190 111.168,64.320 111.168 C 64.450 111.167,64.675 111.067,64.820 110.944 C 64.965 110.822,65.346 110.621,65.667 110.497 C 65.987 110.374,66.429 110.136,66.647 109.970 C 66.866 109.803,67.208 109.667,67.407 109.667 C 67.606 109.667,68.023 109.479,68.333 109.250 C 68.644 109.021,68.974 108.833,69.068 108.833 C 69.161 108.833,69.915 108.505,70.744 108.104 C 73.659 106.693,74.445 106.333,74.612 106.333 C 74.705 106.333,74.909 106.192,75.065 106.020 C 75.221 105.848,75.633 105.661,75.980 105.606 C 76.327 105.550,76.739 105.363,76.897 105.188 C 77.055 105.014,77.419 104.825,77.706 104.767 C 77.993 104.710,78.346 104.561,78.489 104.436 C 78.633 104.311,79.025 104.120,79.362 104.013 C 79.698 103.905,80.062 103.710,80.170 103.579 C 80.278 103.449,80.619 103.295,80.927 103.237 C 81.236 103.179,81.572 103.031,81.674 102.908 C 81.776 102.785,82.222 102.564,82.667 102.417 C 83.111 102.269,83.564 102.040,83.674 101.908 C 83.784 101.775,83.974 101.667,84.097 101.667 C 84.219 101.667,85.099 101.292,86.051 100.833 C 87.004 100.375,87.836 100.000,87.900 100.000 C 87.965 100.000,88.294 99.813,88.631 99.583 C 88.968 99.354,89.403 99.167,89.596 99.167 C 89.790 99.167,90.084 99.017,90.250 98.833 C 90.416 98.650,90.628 98.500,90.721 98.500 C 90.875 98.500,91.603 98.172,93.908 97.063 C 94.361 96.845,94.822 96.667,94.932 96.667 C 95.041 96.667,95.171 96.564,95.219 96.438 C 95.267 96.312,95.591 96.155,95.938 96.090 C 96.285 96.025,96.784 95.791,97.047 95.569 C 97.310 95.348,97.628 95.167,97.753 95.167 C 97.878 95.167,98.631 94.829,99.426 94.417 C 100.221 94.004,100.965 93.667,101.080 93.667 C 101.195 93.667,101.467 93.528,101.686 93.358 C 101.904 93.188,102.383 92.952,102.750 92.833 C 103.117 92.715,103.596 92.479,103.814 92.309 C 104.033 92.139,104.300 92.000,104.408 92.000 C 104.516 92.000,105.635 91.480,106.894 90.845 C 108.153 90.209,109.397 89.643,109.658 89.585 C 109.919 89.528,110.263 89.337,110.422 89.160 C 110.582 88.984,110.965 88.792,111.275 88.734 C 111.584 88.676,111.876 88.566,111.923 88.489 C 111.971 88.412,112.495 88.110,113.089 87.818 C 114.186 87.278,115.880 85.666,116.182 84.875 C 116.305 84.552,116.597 84.415,117.031 84.477 C 117.094 84.486,117.152 82.620,117.161 80.330 L 117.176 76.167 116.755 76.167 C 116.405 76.167,116.333 76.245,116.333 76.630 M215.573 81.583 C 215.573 84.058,215.596 85.094,215.624 83.885 C 215.653 82.676,215.653 80.651,215.625 79.385 C 215.596 78.119,215.573 79.108,215.573 81.583 M230.890 78.417 C 230.891 79.150,230.920 79.429,230.956 79.037 C 230.991 78.645,230.990 78.045,230.954 77.704 C 230.919 77.363,230.890 77.683,230.890 78.417 M231.000 80.423 C 231.000 80.694,231.640 81.169,231.995 81.161 C 232.206 81.157,232.200 81.118,231.958 80.935 C 231.798 80.813,231.667 80.637,231.667 80.543 C 231.667 80.449,231.517 80.333,231.333 80.285 C 231.122 80.230,231.000 80.280,231.000 80.423 M232.963 81.122 C 233.355 81.157,233.955 81.157,234.296 81.121 C 234.637 81.085,234.317 81.057,233.583 81.057 C 232.850 81.058,232.571 81.087,232.963 81.122 M139.705 87.542 L 139.667 94.000 140.125 93.988 C 140.522 93.978,140.539 93.959,140.250 93.847 C 139.927 93.721,139.914 93.521,139.830 87.400 L 139.744 81.083 139.705 87.542 M331.292 88.429 C 330.669 88.767,330.707 88.907,331.333 88.583 C 331.608 88.441,331.833 88.289,331.833 88.246 C 331.833 88.138,331.815 88.145,331.292 88.429 M175.033 88.533 C 174.923 88.643,174.833 88.836,174.833 88.962 C 174.833 89.255,175.364 89.160,175.467 88.848 C 175.523 88.680,175.457 88.645,175.231 88.724 C 174.933 88.828,174.933 88.821,175.240 88.584 C 175.418 88.446,175.489 88.333,175.399 88.333 C 175.308 88.333,175.143 88.423,175.033 88.533 M194.000 88.984 C 194.000 89.118,194.637 89.833,194.756 89.833 C 195.028 89.833,194.756 89.215,194.415 89.057 C 194.187 88.951,194.000 88.918,194.000 88.984 M242.667 88.972 C 242.667 89.079,242.610 89.158,242.542 89.147 C 242.173 89.089,242.000 89.202,242.000 89.500 C 242.000 89.683,242.073 89.833,242.163 89.833 C 242.382 89.833,242.906 89.017,242.773 88.884 C 242.714 88.825,242.667 88.865,242.667 88.972 M336.950 89.223 C 336.903 89.346,336.931 89.553,337.013 89.682 C 337.121 89.853,337.162 89.792,337.164 89.458 C 337.167 88.961,337.085 88.871,336.950 89.223 M257.549 89.291 C 258.264 89.322,259.389 89.322,260.049 89.290 C 260.710 89.259,260.125 89.233,258.750 89.233 C 257.375 89.234,256.835 89.259,257.549 89.291 M215.292 89.694 C 215.070 89.927,215.055 90.000,215.232 90.000 C 215.360 90.000,215.512 89.877,215.569 89.726 C 215.715 89.346,215.633 89.337,215.292 89.694 M154.000 90.190 C 154.000 90.384,154.482 90.818,154.708 90.828 C 154.777 90.831,154.833 90.754,154.833 90.657 C 154.833 90.560,154.753 90.530,154.655 90.590 C 154.557 90.651,154.436 90.543,154.386 90.350 C 154.290 89.983,154.000 89.863,154.000 90.190 M248.544 90.307 C 248.558 90.497,248.603 90.619,248.645 90.578 C 248.686 90.537,248.839 90.595,248.985 90.707 C 249.145 90.830,249.119 90.748,248.918 90.497 C 248.736 90.270,248.571 90.056,248.552 90.023 C 248.533 89.990,248.530 90.118,248.544 90.307 M289.232 90.264 C 289.288 90.409,289.333 90.568,289.333 90.617 C 289.333 90.667,289.449 90.611,289.591 90.493 C 289.797 90.323,289.806 90.252,289.633 90.142 C 289.291 89.926,289.122 89.977,289.232 90.264 M316.346 90.111 C 316.321 90.487,316.538 90.833,316.800 90.833 C 317.040 90.833,317.040 90.815,316.801 90.625 C 316.657 90.510,316.498 90.304,316.449 90.167 C 316.400 90.029,316.354 90.004,316.346 90.111 M336.000 90.774 C 335.754 90.842,335.262 91.672,335.474 91.661 C 335.681 91.651,336.104 91.249,336.213 90.958 C 336.274 90.798,336.306 90.675,336.286 90.686 C 336.266 90.697,336.137 90.736,336.000 90.774 M194.875 91.167 C 194.912 91.304,195.124 91.431,195.346 91.447 C 195.665 91.472,195.680 91.459,195.417 91.386 C 195.233 91.336,195.021 91.210,194.946 91.106 C 194.855 90.981,194.831 91.001,194.875 91.167 M241.574 91.245 C 241.299 91.452,241.291 91.490,241.524 91.495 C 241.674 91.498,241.841 91.388,241.894 91.250 C 242.013 90.939,241.978 90.939,241.574 91.245 M317.394 91.708 C 317.439 92.002,317.662 92.333,317.815 92.333 C 318.013 92.333,317.974 91.766,317.766 91.628 C 317.494 91.445,317.359 91.474,317.394 91.708 M173.439 92.080 C 173.139 92.307,173.140 92.315,173.476 92.289 C 173.668 92.275,173.862 92.166,173.907 92.048 C 174.014 91.771,173.831 91.783,173.439 92.080 M172.918 92.503 C 173.017 92.662,172.979 92.694,172.783 92.619 C 172.486 92.505,172.255 92.738,172.412 92.993 C 172.539 93.199,172.948 93.041,173.063 92.742 C 173.112 92.615,173.069 92.459,172.967 92.396 C 172.846 92.322,172.829 92.359,172.918 92.503 M318.583 92.667 C 318.749 92.850,318.904 93.000,318.927 93.000 C 318.950 93.000,318.930 92.850,318.882 92.667 C 318.834 92.483,318.679 92.333,318.538 92.333 C 318.322 92.333,318.330 92.386,318.583 92.667 M334.500 92.500 C 334.500 92.592,334.400 92.667,334.278 92.667 C 334.156 92.667,334.056 92.775,334.056 92.908 C 334.056 93.090,334.130 93.109,334.361 92.985 C 334.630 92.841,334.803 92.333,334.583 92.333 C 334.537 92.333,334.500 92.408,334.500 92.500 M239.760 92.922 C 239.444 93.160,239.446 93.167,239.811 93.167 C 240.018 93.167,240.144 93.098,240.092 93.014 C 240.040 92.930,240.092 92.824,240.207 92.777 C 240.322 92.731,240.342 92.689,240.250 92.685 C 240.158 92.681,239.938 92.787,239.760 92.922 M157.167 93.276 C 157.167 93.523,157.627 94.095,157.737 93.985 C 157.791 93.931,157.685 93.713,157.501 93.501 C 157.317 93.289,157.167 93.188,157.167 93.276 M211.654 93.208 C 211.451 93.870,211.848 94.095,212.167 93.500 C 212.318 93.217,212.293 93.167,212.006 93.167 C 211.819 93.167,211.661 93.185,211.654 93.208 M292.667 93.295 C 292.667 93.379,292.804 93.573,292.972 93.725 C 293.260 93.985,293.276 93.980,293.250 93.626 C 293.224 93.275,292.667 92.960,292.667 93.295 M319.689 93.542 C 319.670 93.941,319.726 93.997,320.125 93.977 C 320.502 93.959,320.519 93.942,320.219 93.884 C 320.008 93.843,319.824 93.659,319.783 93.448 C 319.725 93.148,319.708 93.164,319.689 93.542 M251.667 93.429 C 251.667 93.640,252.162 94.000,252.446 93.994 C 252.711 93.990,252.699 93.947,252.357 93.661 C 251.972 93.341,251.667 93.238,251.667 93.429 M309.926 93.785 C 309.881 93.903,309.910 94.000,309.992 94.000 C 310.267 94.000,310.667 93.798,310.667 93.659 C 310.667 93.438,310.017 93.548,309.926 93.785 M114.910 95.511 C 114.849 95.609,114.684 95.645,114.543 95.591 C 114.328 95.508,114.321 95.534,114.501 95.752 C 114.762 96.065,115.039 96.002,115.096 95.616 C 115.143 95.293,115.070 95.252,114.910 95.511 M112.333 96.993 C 112.333 97.089,112.052 97.175,111.708 97.186 C 111.365 97.197,111.219 97.240,111.384 97.283 C 111.597 97.339,111.636 97.420,111.517 97.563 C 111.390 97.716,111.488 97.748,111.919 97.698 C 112.616 97.617,112.892 97.334,112.567 97.035 C 112.432 96.911,112.333 96.893,112.333 96.993 M105.056 100.583 C 105.056 100.736,105.211 100.833,105.454 100.833 C 105.674 100.833,105.811 100.765,105.759 100.681 C 105.707 100.597,105.759 100.490,105.874 100.444 C 105.989 100.398,105.852 100.354,105.569 100.346 C 105.218 100.337,105.056 100.412,105.056 100.583 M102.833 101.500 C 102.833 101.592,103.002 101.666,103.208 101.664 C 103.512 101.662,103.535 101.631,103.333 101.500 C 103.010 101.291,102.833 101.291,102.833 101.500 M99.424 102.988 C 99.257 103.259,99.620 103.341,99.835 103.081 C 100.002 102.880,99.992 102.833,99.780 102.833 C 99.637 102.833,99.477 102.903,99.424 102.988 M98.663 103.670 C 98.296 103.988,98.295 104.000,98.621 104.000 C 99.005 104.000,99.432 103.581,99.196 103.435 C 99.112 103.383,98.872 103.489,98.663 103.670 M96.919 104.329 C 96.744 104.612,97.280 104.849,97.498 104.585 C 97.613 104.447,97.680 104.328,97.645 104.321 C 97.134 104.215,96.988 104.217,96.919 104.329 M95.449 105.262 C 95.045 105.612,95.025 105.667,95.304 105.667 C 95.657 105.667,96.065 105.272,95.974 105.018 C 95.943 104.930,95.706 105.040,95.449 105.262 M92.727 106.463 C 92.788 106.562,92.763 106.691,92.669 106.748 C 92.576 106.806,92.499 106.755,92.497 106.635 C 92.496 106.502,92.447 106.482,92.372 106.583 C 92.305 106.675,91.951 106.774,91.585 106.804 C 90.824 106.865,90.825 106.865,90.759 107.276 C 90.726 107.486,90.584 107.573,90.313 107.552 C 90.095 107.535,90.011 107.560,90.126 107.608 C 90.241 107.656,90.293 107.764,90.241 107.848 C 90.189 107.931,90.334 108.000,90.564 108.000 C 91.078 108.000,91.264 107.735,90.986 107.400 C 90.871 107.261,90.846 107.161,90.930 107.177 C 91.014 107.193,91.158 107.190,91.250 107.170 C 91.342 107.149,91.645 107.145,91.924 107.160 C 92.503 107.190,93.173 106.627,92.818 106.407 C 92.693 106.330,92.658 106.351,92.727 106.463 M89.167 107.833 C 89.167 107.925,89.321 108.000,89.510 108.000 C 89.699 108.000,89.807 107.925,89.750 107.833 C 89.693 107.742,89.539 107.667,89.407 107.667 C 89.275 107.667,89.167 107.742,89.167 107.833 M85.780 109.375 C 85.532 109.556,85.580 109.589,86.142 109.627 C 86.561 109.656,86.862 109.582,86.998 109.419 C 87.270 109.092,86.218 109.054,85.780 109.375 M83.333 110.721 C 82.541 110.987,82.507 111.307,83.285 111.180 C 83.682 111.116,83.899 110.984,83.928 110.791 C 83.951 110.631,83.958 110.506,83.944 110.513 C 83.929 110.520,83.654 110.614,83.333 110.721 M80.231 112.364 C 80.183 112.442,80.055 112.456,79.947 112.396 C 79.839 112.336,79.877 112.422,80.033 112.587 C 80.307 112.878,80.833 112.716,80.833 112.341 C 80.833 112.174,80.337 112.193,80.231 112.364 M78.583 113.345 C 78.150 113.622,78.130 113.665,78.433 113.666 C 78.625 113.666,78.917 113.517,79.083 113.333 C 79.459 112.918,79.241 112.923,78.583 113.345 M77.116 113.793 C 76.950 113.831,76.844 113.949,76.880 114.056 C 76.979 114.353,77.446 114.382,77.555 114.097 C 77.670 113.797,77.529 113.700,77.116 113.793 M74.000 115.000 C 74.000 115.092,74.221 115.167,74.490 115.167 C 74.760 115.167,75.027 115.092,75.083 115.000 C 75.145 114.901,74.946 114.833,74.593 114.833 C 74.267 114.833,74.000 114.908,74.000 115.000 M71.487 116.375 C 71.318 116.929,71.366 117.022,71.679 116.739 C 71.856 116.579,72.000 116.422,72.000 116.391 C 72.000 116.326,71.507 116.311,71.487 116.375 M69.836 117.343 C 69.362 117.607,69.322 117.667,69.616 117.667 C 69.814 117.667,70.077 117.566,70.199 117.443 C 70.322 117.321,70.534 117.177,70.670 117.123 C 70.886 117.038,70.886 117.026,70.667 117.023 C 70.529 117.021,70.155 117.165,69.836 117.343 M67.333 118.250 C 67.333 118.387,67.458 118.436,67.667 118.382 C 67.850 118.334,68.000 118.274,68.000 118.250 C 68.000 118.226,67.850 118.166,67.667 118.118 C 67.458 118.064,67.333 118.113,67.333 118.250 M66.536 118.859 C 66.623 119.119,66.996 119.164,67.009 118.917 C 67.014 118.825,66.893 118.724,66.740 118.692 C 66.566 118.656,66.490 118.719,66.536 118.859 M53.667 120.412 C 53.667 120.530,53.793 120.729,53.948 120.855 C 54.193 121.054,54.216 121.047,54.124 120.802 C 54.066 120.648,54.106 120.492,54.213 120.457 C 54.320 120.421,54.241 120.348,54.037 120.295 C 53.796 120.232,53.667 120.273,53.667 120.412 M62.616 120.440 C 62.417 120.639,62.684 120.833,63.156 120.833 C 63.414 120.833,63.719 120.721,63.833 120.583 C 64.049 120.324,62.871 120.185,62.616 120.440 " stroke="none" fill="#24c3fb" fill-rule="evenodd"></path><path id="path2" d="M54.338 38.993 C 53.941 39.244,54.212 39.297,54.667 39.058 C 54.896 38.937,54.971 38.838,54.833 38.838 C 54.696 38.838,54.473 38.908,54.338 38.993 M310.746 78.417 C 310.746 86.575,310.767 89.888,310.792 85.779 C 310.816 81.670,310.816 74.995,310.792 70.946 C 310.767 66.896,310.746 70.258,310.746 78.417 M319.167 70.149 C 319.167 70.261,319.107 70.316,319.035 70.271 C 318.962 70.226,318.891 70.346,318.876 70.537 C 318.851 70.876,318.856 70.876,319.109 70.514 C 319.251 70.311,319.322 70.100,319.267 70.045 C 319.212 69.990,319.167 70.036,319.167 70.149 M333.500 70.121 C 333.637 70.174,333.805 70.299,333.872 70.400 C 333.948 70.513,333.996 70.472,333.997 70.292 C 333.999 70.096,333.877 70.004,333.625 70.013 C 333.374 70.022,333.333 70.058,333.500 70.121 M290.277 71.792 C 290.236 71.860,290.302 72.009,290.424 72.122 C 290.603 72.287,290.641 72.263,290.621 71.997 C 290.596 71.665,290.418 71.559,290.277 71.792 M194.172 74.000 C 194.050 74.305,194.078 74.822,194.210 74.690 C 194.295 74.605,194.329 74.396,194.285 74.226 C 194.241 74.056,194.190 73.954,194.172 74.000 M116.625 84.443 C 116.373 84.576,116.167 84.778,116.167 84.893 C 116.167 85.383,114.161 87.290,113.092 87.817 C 112.497 88.110,111.971 88.412,111.923 88.489 C 111.876 88.566,111.584 88.676,111.275 88.734 C 110.965 88.792,110.582 88.984,110.422 89.160 C 110.263 89.337,109.919 89.528,109.658 89.585 C 109.397 89.643,108.153 90.209,106.894 90.845 C 105.635 91.480,104.516 92.000,104.408 92.000 C 104.300 92.000,104.033 92.139,103.814 92.309 C 103.596 92.479,103.117 92.715,102.750 92.833 C 102.383 92.952,101.904 93.188,101.686 93.358 C 101.467 93.528,101.195 93.667,101.080 93.667 C 100.965 93.667,100.221 94.004,99.426 94.417 C 98.631 94.829,97.878 95.167,97.753 95.167 C 97.628 95.167,97.310 95.348,97.047 95.569 C 96.784 95.791,96.285 96.025,95.938 96.090 C 95.591 96.155,95.267 96.312,95.219 96.438 C 95.171 96.564,95.041 96.667,94.932 96.667 C 94.822 96.667,94.361 96.845,93.908 97.063 C 91.603 98.172,90.875 98.500,90.721 98.500 C 90.628 98.500,90.416 98.650,90.250 98.833 C 90.084 99.017,89.790 99.167,89.596 99.167 C 89.403 99.167,88.968 99.354,88.631 99.583 C 88.294 99.813,87.965 100.000,87.900 100.000 C 87.836 100.000,87.004 100.375,86.051 100.833 C 85.099 101.292,84.219 101.667,84.097 101.667 C 83.974 101.667,83.784 101.775,83.674 101.908 C 83.564 102.040,83.111 102.269,82.667 102.417 C 82.222 102.564,81.776 102.785,81.674 102.908 C 81.572 103.031,81.236 103.179,80.927 103.237 C 80.619 103.295,80.278 103.449,80.170 103.579 C 80.062 103.710,79.698 103.905,79.362 104.013 C 79.025 104.120,78.633 104.311,78.489 104.436 C 78.346 104.561,77.993 104.710,77.706 104.767 C 77.419 104.825,77.055 105.014,76.897 105.188 C 76.739 105.363,76.327 105.550,75.980 105.606 C 75.633 105.661,75.221 105.848,75.065 106.020 C 74.909 106.192,74.705 106.333,74.612 106.333 C 74.445 106.333,73.659 106.693,70.744 108.104 C 69.915 108.505,69.161 108.833,69.068 108.833 C 68.974 108.833,68.644 109.021,68.333 109.250 C 68.023 109.479,67.606 109.667,67.407 109.667 C 67.208 109.667,66.866 109.803,66.647 109.970 C 66.429 110.136,65.987 110.374,65.667 110.497 C 65.346 110.621,64.965 110.822,64.820 110.944 C 64.675 111.067,64.450 111.167,64.320 111.168 C 64.190 111.168,63.783 111.353,63.417 111.579 C 63.050 111.805,62.584 111.992,62.381 111.995 C 62.179 111.998,61.873 112.150,61.702 112.334 C 60.145 114.005,55.287 113.347,53.630 111.241 C 53.447 111.009,53.135 110.833,52.905 110.833 L 52.500 110.833 52.466 113.708 C 52.396 119.583,52.472 120.341,53.109 120.097 C 53.254 120.041,53.307 120.075,53.240 120.182 C 53.175 120.287,53.257 120.347,53.440 120.328 C 53.918 120.277,54.439 120.350,54.226 120.438 C 54.017 120.524,54.121 121.167,54.344 121.167 C 54.421 121.167,54.568 121.035,54.671 120.875 C 54.850 120.597,54.854 120.597,54.768 120.875 C 54.693 121.115,54.782 121.167,55.269 121.167 C 55.666 121.167,55.838 121.235,55.792 121.374 C 55.540 122.129,60.463 122.288,60.959 121.541 C 61.153 121.249,61.366 121.167,61.927 121.167 C 62.635 121.167,63.004 120.959,62.667 120.750 C 62.311 120.530,62.715 120.333,63.521 120.333 C 64.261 120.333,64.345 120.298,64.257 120.022 C 64.179 119.776,64.264 119.689,64.662 119.609 C 65.024 119.537,65.167 119.413,65.167 119.171 C 65.167 118.826,65.739 118.715,67.045 118.804 C 67.456 118.832,67.496 118.791,67.405 118.429 C 67.315 118.071,67.347 118.035,67.684 118.123 C 68.041 118.216,68.045 118.230,67.741 118.336 C 67.479 118.428,67.522 118.465,67.963 118.530 C 68.399 118.594,68.609 118.515,69.003 118.138 C 69.275 117.879,69.443 117.667,69.376 117.667 C 69.309 117.667,69.541 117.513,69.890 117.326 C 70.240 117.139,70.657 117.027,70.818 117.079 C 70.997 117.135,71.234 117.030,71.430 116.807 C 71.606 116.607,71.645 116.505,71.516 116.580 C 71.358 116.673,71.320 116.656,71.401 116.526 C 71.466 116.420,71.660 116.333,71.832 116.333 C 72.004 116.333,72.188 116.196,72.241 116.028 C 72.295 115.860,72.453 115.722,72.593 115.722 C 72.755 115.722,72.811 115.817,72.748 115.981 C 72.694 116.123,72.702 116.187,72.768 116.121 C 72.833 116.056,72.987 116.086,73.110 116.189 C 73.274 116.325,73.333 116.325,73.333 116.187 C 73.333 116.084,73.424 116.019,73.534 116.042 C 73.645 116.065,73.738 115.996,73.742 115.889 C 73.747 115.782,73.806 115.638,73.875 115.569 C 73.944 115.501,74.000 115.307,74.000 115.139 C 74.000 114.900,74.129 114.833,74.595 114.833 C 75.212 114.833,75.765 114.461,75.584 114.168 C 75.522 114.067,75.714 114.000,76.063 114.000 C 76.383 114.000,76.835 113.928,77.067 113.840 C 77.301 113.751,77.528 113.744,77.578 113.824 C 77.627 113.904,77.816 113.930,77.998 113.882 C 78.181 113.834,78.295 113.740,78.253 113.672 C 78.121 113.458,79.053 113.074,79.958 112.969 C 80.073 112.955,80.167 112.897,80.167 112.839 C 80.167 112.781,80.073 112.632,79.958 112.509 C 79.818 112.358,79.814 112.320,79.947 112.395 C 80.055 112.456,80.188 112.434,80.241 112.348 C 80.295 112.261,80.534 112.225,80.773 112.269 C 81.118 112.331,81.187 112.293,81.107 112.084 C 80.992 111.786,81.271 111.638,82.059 111.578 C 82.347 111.556,82.635 111.529,82.699 111.519 C 82.762 111.508,82.787 111.358,82.753 111.184 C 82.706 110.936,82.834 110.831,83.345 110.702 C 83.704 110.611,83.956 110.603,83.906 110.685 C 83.855 110.766,83.931 110.833,84.073 110.833 C 84.240 110.833,84.333 110.683,84.333 110.417 C 84.333 110.053,84.406 110.000,84.903 110.000 C 85.216 110.000,85.591 109.954,85.736 109.899 C 86.099 109.760,86.072 109.439,85.708 109.566 C 85.465 109.651,85.471 109.626,85.740 109.417 C 85.918 109.279,86.317 109.167,86.627 109.167 C 87.218 109.167,87.762 108.788,87.584 108.501 C 87.387 108.182,87.698 108.335,88.005 108.708 C 88.394 109.182,88.842 108.967,89.076 108.194 C 89.197 107.794,89.338 107.661,89.659 107.642 C 90.180 107.612,90.544 107.564,90.708 107.504 C 90.777 107.479,90.905 107.449,90.992 107.438 C 91.079 107.426,91.248 107.312,91.367 107.184 C 91.547 106.990,91.541 106.976,91.333 107.096 C 90.928 107.330,90.683 107.318,90.779 107.067 C 90.861 106.855,91.047 106.807,91.958 106.764 C 92.119 106.756,92.305 106.675,92.372 106.583 C 92.450 106.478,92.496 106.488,92.497 106.610 C 92.499 106.717,92.631 106.779,92.792 106.748 C 92.952 106.717,93.216 106.686,93.379 106.679 C 93.542 106.672,93.746 106.479,93.833 106.250 C 93.962 105.913,94.105 105.833,94.589 105.833 C 94.918 105.833,95.154 105.777,95.115 105.708 C 95.076 105.640,95.259 105.409,95.522 105.196 C 95.785 104.982,96.000 104.893,96.000 104.997 C 96.000 105.101,96.076 105.139,96.169 105.082 C 96.263 105.024,96.305 104.922,96.264 104.856 C 96.015 104.453,96.515 104.283,98.236 104.185 C 98.412 104.175,98.507 104.118,98.447 104.059 C 98.272 103.883,99.004 103.345,99.276 103.450 C 99.450 103.517,99.509 103.453,99.471 103.239 C 99.428 102.996,99.563 102.907,100.128 102.808 C 101.008 102.653,101.214 102.531,101.100 102.233 C 101.050 102.104,101.111 102.000,101.237 102.000 C 101.362 102.000,101.510 102.118,101.565 102.262 C 101.775 102.810,102.576 102.289,102.934 101.371 C 102.944 101.346,103.075 101.373,103.225 101.430 C 103.375 101.488,103.457 101.602,103.406 101.684 C 103.196 102.023,103.801 101.801,104.136 101.417 C 104.335 101.188,104.644 101.000,104.823 101.000 C 105.058 101.000,105.130 100.908,105.083 100.667 C 105.030 100.388,105.114 100.330,105.593 100.313 C 105.908 100.301,106.242 100.273,106.333 100.250 C 106.425 100.227,106.648 100.199,106.829 100.188 C 107.100 100.170,107.683 99.407,107.670 99.085 C 107.658 98.791,107.696 98.782,107.847 99.042 C 108.199 99.646,109.167 99.148,109.167 98.362 C 109.167 98.032,109.252 98.000,110.141 98.000 C 111.189 98.000,112.110 97.471,111.388 97.284 C 111.220 97.241,111.358 97.197,111.694 97.186 C 112.031 97.175,112.343 97.073,112.390 96.958 C 112.457 96.792,112.476 96.792,112.487 96.958 C 112.529 97.621,114.000 96.665,114.000 95.976 C 114.000 95.693,114.186 95.586,114.559 95.653 C 114.638 95.667,114.821 95.582,114.966 95.464 C 115.168 95.301,115.201 95.299,115.105 95.458 C 114.942 95.730,115.078 95.721,115.655 95.423 C 116.206 95.138,116.333 94.871,116.333 94.000 C 116.333 93.166,116.494 92.720,116.683 93.026 C 116.794 93.206,116.859 93.207,117.033 93.033 C 117.207 92.859,117.201 92.790,116.999 92.662 C 116.825 92.552,116.814 92.504,116.963 92.503 C 117.131 92.501,117.173 91.614,117.161 88.333 C 117.152 86.042,117.131 84.175,117.114 84.184 C 117.097 84.194,116.877 84.311,116.625 84.443 M194.944 90.972 C 194.975 91.094,195.000 91.225,195.000 91.264 C 195.000 91.302,195.063 91.333,195.139 91.333 C 195.215 91.333,195.278 91.224,195.278 91.091 C 195.278 90.957,195.222 90.883,195.153 90.925 C 195.085 90.967,194.997 90.945,194.958 90.876 C 194.920 90.807,194.913 90.850,194.944 90.972 " stroke="none" fill="#4b9cec" fill-rule="evenodd"></path><path id="path3" d="M56.611 38.278 C 56.550 38.339,56.500 38.494,56.500 38.623 C 56.500 38.959,57.043 38.808,57.095 38.458 C 57.136 38.172,56.831 38.058,56.611 38.278 M57.377 38.398 C 57.324 38.483,57.372 38.496,57.482 38.428 C 57.591 38.360,57.772 38.374,57.882 38.459 C 58.008 38.555,58.227 38.537,58.469 38.411 C 58.824 38.224,58.801 38.210,58.163 38.227 C 57.782 38.237,57.429 38.314,57.377 38.398 M59.314 38.518 C 59.494 38.711,59.726 38.817,59.829 38.753 C 60.095 38.589,59.719 38.167,59.306 38.167 C 58.994 38.167,58.994 38.174,59.314 38.518 M61.158 39.240 C 61.268 39.372,61.471 39.437,61.609 39.384 C 61.814 39.305,61.820 39.261,61.639 39.146 C 61.250 38.899,60.928 38.963,61.158 39.240 M62.814 40.036 C 62.886 40.230,63.069 40.407,63.220 40.429 C 63.436 40.461,63.461 40.406,63.336 40.171 C 63.088 39.709,62.651 39.596,62.814 40.036 M65.500 41.216 C 65.546 41.263,65.771 41.327,66.000 41.359 C 66.475 41.425,66.836 41.687,66.719 41.881 C 66.676 41.953,66.829 41.977,67.060 41.935 C 67.293 41.893,67.516 41.946,67.561 42.054 C 67.616 42.191,67.644 42.193,67.654 42.062 C 67.661 41.959,67.554 41.781,67.417 41.667 C 67.279 41.553,67.167 41.515,67.167 41.583 C 67.167 41.652,67.056 41.615,66.920 41.502 C 66.688 41.310,65.320 41.034,65.500 41.216 M68.820 42.273 C 68.909 42.318,68.940 42.463,68.889 42.594 C 68.839 42.726,68.886 42.833,68.994 42.833 C 69.255 42.833,69.143 42.290,68.871 42.235 C 68.754 42.211,68.731 42.228,68.820 42.273 M69.806 42.980 C 69.928 43.057,70.022 43.168,70.014 43.227 C 69.968 43.574,70.035 43.667,70.333 43.667 C 70.517 43.667,70.667 43.596,70.667 43.509 C 70.667 43.324,70.001 42.832,69.755 42.836 C 69.660 42.837,69.683 42.902,69.806 42.980 M72.000 43.818 C 72.137 43.915,72.185 43.996,72.105 43.997 C 72.025 43.999,72.053 44.112,72.167 44.250 C 72.281 44.387,72.496 44.495,72.645 44.488 C 72.850 44.479,72.835 44.445,72.583 44.346 C 72.400 44.275,72.250 44.118,72.250 43.997 C 72.250 43.876,72.137 43.747,72.000 43.710 C 71.778 43.649,71.778 43.661,72.000 43.818 M56.417 44.652 C 55.189 44.989,54.437 45.409,53.738 46.149 C 53.351 46.559,53.106 46.690,52.852 46.623 L 52.500 46.531 52.475 70.932 C 52.461 84.353,52.442 95.422,52.433 95.530 C 52.424 95.638,52.618 95.780,52.863 95.845 C 53.109 95.911,53.630 96.273,54.022 96.649 C 54.413 97.025,54.790 97.333,54.858 97.333 C 54.927 97.333,55.185 97.521,55.432 97.750 C 55.694 97.993,56.081 98.167,56.359 98.167 C 56.630 98.167,56.960 98.311,57.122 98.500 C 57.533 98.980,60.150 98.999,60.446 98.524 C 60.553 98.354,60.916 98.170,61.254 98.115 C 61.592 98.060,61.955 97.898,62.060 97.754 C 62.165 97.610,62.551 97.445,62.917 97.387 C 63.294 97.327,63.743 97.112,63.950 96.891 C 64.200 96.625,64.504 96.500,64.901 96.500 C 65.302 96.500,65.616 96.369,65.902 96.083 C 66.188 95.797,66.501 95.667,66.903 95.667 C 67.308 95.667,67.541 95.569,67.659 95.348 C 67.762 95.156,68.094 94.985,68.500 94.917 C 68.906 94.848,69.238 94.678,69.341 94.485 C 69.447 94.287,69.690 94.167,69.982 94.167 C 70.252 94.167,70.642 93.990,70.901 93.750 C 71.178 93.493,71.547 93.333,71.864 93.333 C 72.199 93.333,72.514 93.188,72.765 92.917 C 73.029 92.631,73.327 92.500,73.713 92.500 C 74.097 92.500,74.399 92.368,74.667 92.083 C 74.882 91.854,75.233 91.667,75.446 91.667 C 75.659 91.667,75.983 91.517,76.167 91.333 C 76.350 91.150,76.677 91.000,76.892 91.000 C 77.108 91.000,77.487 90.813,77.734 90.583 C 78.033 90.306,78.376 90.167,78.760 90.167 C 79.166 90.167,79.442 90.044,79.698 89.750 C 79.966 89.442,80.225 89.333,80.697 89.333 C 81.145 89.333,81.333 89.261,81.333 89.089 C 81.333 88.791,81.842 88.500,82.366 88.500 C 82.579 88.500,82.846 88.351,82.960 88.169 C 83.083 87.972,83.432 87.795,83.819 87.733 C 84.239 87.666,84.498 87.526,84.547 87.339 C 84.598 87.141,84.854 87.019,85.353 86.952 C 85.830 86.888,86.163 86.735,86.312 86.510 C 86.478 86.262,86.719 86.167,87.187 86.167 C 87.542 86.167,87.833 86.097,87.833 86.012 C 87.833 85.725,88.354 85.333,88.736 85.333 C 88.944 85.333,89.249 85.185,89.414 85.003 C 89.578 84.822,89.983 84.623,90.315 84.561 C 90.646 84.500,91.015 84.311,91.134 84.142 C 91.254 83.973,91.650 83.787,92.015 83.728 C 92.413 83.665,92.746 83.497,92.845 83.311 C 92.959 83.098,93.196 83.000,93.597 83.000 C 94.008 83.000,94.298 82.875,94.569 82.583 C 94.781 82.354,95.098 82.167,95.272 82.167 C 95.447 82.167,95.865 81.979,96.202 81.750 C 96.540 81.521,96.929 81.333,97.068 81.333 C 97.207 81.333,97.455 81.190,97.619 81.015 C 97.782 80.839,98.214 80.641,98.577 80.573 C 98.940 80.505,99.356 80.304,99.500 80.125 C 99.667 79.920,100.052 79.768,100.548 79.712 C 101.048 79.656,101.333 79.542,101.333 79.401 C 101.333 79.121,101.857 78.833,102.366 78.833 C 102.579 78.833,102.847 78.683,102.961 78.500 C 103.076 78.317,103.345 78.167,103.560 78.167 C 103.775 78.167,104.154 77.979,104.401 77.750 C 104.648 77.521,105.034 77.333,105.259 77.333 C 105.483 77.333,105.827 77.173,106.023 76.977 C 106.231 76.769,106.670 76.588,107.075 76.542 C 107.580 76.485,107.813 76.366,107.927 76.107 C 108.034 75.861,108.263 75.733,108.660 75.695 C 108.977 75.665,109.332 75.505,109.448 75.339 C 109.564 75.174,109.906 74.992,110.209 74.935 C 110.513 74.878,110.889 74.682,111.045 74.499 C 111.208 74.309,111.537 74.167,111.813 74.167 C 112.143 74.167,112.381 74.036,112.568 73.750 C 112.759 73.458,112.991 73.333,113.343 73.333 C 115.118 73.333,115.678 70.543,114.130 69.417 C 113.039 68.623,110.041 67.167,109.498 67.167 C 109.391 67.167,109.112 67.017,108.879 66.833 C 108.646 66.650,108.288 66.500,108.084 66.500 C 107.880 66.500,107.448 66.320,107.124 66.101 C 106.801 65.881,106.284 65.646,105.976 65.580 C 105.668 65.513,105.154 65.321,104.833 65.154 C 104.046 64.743,102.843 64.224,102.333 64.077 C 102.104 64.011,101.729 63.825,101.500 63.666 C 101.271 63.506,100.821 63.321,100.500 63.255 C 100.179 63.189,99.654 62.962,99.333 62.750 C 99.013 62.538,98.511 62.315,98.220 62.255 C 97.928 62.195,97.600 62.038,97.491 61.906 C 97.382 61.774,97.170 61.664,97.021 61.661 C 96.872 61.659,96.375 61.472,95.917 61.246 C 95.458 61.021,95.000 60.836,94.897 60.835 C 94.795 60.834,94.533 60.694,94.314 60.524 C 94.096 60.354,93.638 60.164,93.297 60.101 C 92.956 60.038,92.457 59.802,92.189 59.577 C 91.921 59.351,91.517 59.167,91.290 59.167 C 91.064 59.167,90.688 59.017,90.455 58.833 C 90.221 58.650,89.969 58.500,89.893 58.500 C 89.817 58.500,89.341 58.303,88.836 58.062 C 86.540 56.969,86.234 56.833,86.062 56.833 C 85.961 56.833,85.699 56.694,85.481 56.523 C 85.262 56.352,84.896 56.158,84.667 56.090 C 84.205 55.955,82.778 55.308,80.750 54.316 C 80.017 53.957,79.300 53.665,79.157 53.665 C 79.015 53.666,78.644 53.479,78.333 53.250 C 78.023 53.021,77.643 52.833,77.490 52.833 C 77.337 52.833,77.033 52.694,76.814 52.523 C 76.596 52.352,76.229 52.154,76.000 52.084 C 75.623 51.967,73.782 51.131,71.583 50.080 C 71.125 49.860,70.563 49.630,70.333 49.568 C 70.104 49.505,69.740 49.316,69.525 49.148 C 69.309 48.980,68.881 48.795,68.572 48.737 C 68.264 48.679,67.925 48.527,67.819 48.399 C 67.713 48.271,67.541 48.167,67.437 48.167 C 67.333 48.167,66.910 47.989,66.499 47.772 C 66.087 47.554,65.563 47.319,65.333 47.249 C 65.104 47.178,64.746 46.987,64.537 46.824 C 64.328 46.661,63.866 46.478,63.510 46.418 C 63.154 46.358,62.732 46.165,62.572 45.988 C 62.412 45.811,62.159 45.667,62.009 45.667 C 61.860 45.667,61.440 45.511,61.077 45.320 C 59.225 44.348,58.109 44.188,56.417 44.652 M73.793 44.611 C 73.908 44.657,73.959 44.765,73.906 44.851 C 73.803 45.017,74.808 45.500,75.257 45.500 C 75.404 45.500,75.640 45.616,75.782 45.758 C 75.924 45.900,76.259 46.060,76.526 46.114 C 76.793 46.167,77.087 46.351,77.178 46.522 C 77.270 46.693,77.474 46.827,77.631 46.820 C 77.862 46.810,77.869 46.789,77.667 46.711 C 77.529 46.657,77.319 46.476,77.199 46.307 C 77.079 46.138,76.835 46.000,76.657 46.000 C 76.479 46.000,76.333 45.928,76.333 45.839 C 76.333 45.635,75.847 45.373,75.275 45.269 C 75.032 45.225,74.615 45.034,74.349 44.844 C 74.083 44.655,73.802 44.506,73.724 44.513 C 73.647 44.520,73.678 44.564,73.793 44.611 M79.226 47.251 C 79.239 47.479,79.306 47.666,79.375 47.667 C 79.551 47.667,79.531 47.039,79.351 46.928 C 79.269 46.877,79.213 47.022,79.226 47.251 M80.585 47.836 C 80.643 47.929,80.760 47.962,80.845 47.910 C 80.930 47.857,81.000 47.875,81.000 47.950 C 81.000 48.025,81.158 48.185,81.350 48.305 C 81.698 48.522,81.698 48.521,81.392 48.100 C 81.105 47.707,80.353 47.461,80.585 47.836 M86.000 50.307 C 86.000 50.384,86.190 50.533,86.422 50.639 C 86.815 50.818,86.831 50.808,86.666 50.499 C 86.492 50.173,86.000 50.031,86.000 50.307 M89.333 51.917 C 89.447 52.054,89.675 52.167,89.840 52.167 C 90.004 52.167,90.173 52.260,90.215 52.375 C 90.274 52.535,90.340 52.538,90.501 52.387 C 90.665 52.232,90.576 52.165,90.089 52.073 C 89.654 51.992,89.535 51.914,89.692 51.814 C 89.853 51.712,89.805 51.671,89.521 51.669 C 89.189 51.667,89.159 51.706,89.333 51.917 M94.833 54.151 C 94.833 54.340,95.333 54.748,95.336 54.562 C 95.337 54.482,95.411 54.529,95.500 54.667 C 95.589 54.804,95.662 54.842,95.662 54.750 C 95.662 54.658,95.606 54.503,95.539 54.405 C 95.377 54.167,94.833 53.972,94.833 54.151 M96.546 55.065 C 96.800 55.178,96.964 55.314,96.910 55.368 C 96.855 55.422,96.891 55.516,96.989 55.576 C 97.092 55.640,97.167 55.549,97.167 55.363 C 97.167 55.168,97.017 54.999,96.792 54.938 C 96.183 54.775,96.048 54.845,96.546 55.065 M98.282 56.071 C 98.552 56.305,98.777 56.399,98.815 56.294 C 98.889 56.084,98.376 55.667,98.042 55.667 C 97.916 55.667,98.023 55.847,98.282 56.071 M99.281 56.248 C 99.021 56.438,99.035 56.458,99.416 56.458 C 99.887 56.458,100.116 56.247,99.784 56.119 C 99.666 56.074,99.440 56.132,99.281 56.248 M101.821 57.560 C 102.366 58.153,102.916 58.150,102.537 57.555 C 102.469 57.448,102.189 57.306,101.915 57.240 L 101.417 57.120 101.821 57.560 M103.644 58.272 C 103.953 58.407,104.251 58.471,104.306 58.416 C 104.466 58.256,103.957 58.004,103.500 58.016 C 103.116 58.026,103.127 58.046,103.644 58.272 M107.413 60.327 C 107.471 60.422,107.715 60.500,107.954 60.500 C 108.477 60.500,108.416 60.420,107.778 60.267 C 107.468 60.192,107.342 60.213,107.413 60.327 M109.057 60.794 C 109.226 60.987,109.470 61.104,109.599 61.054 C 109.903 60.937,109.902 60.667,109.597 60.667 C 109.467 60.667,109.223 60.616,109.055 60.555 C 108.761 60.447,108.761 60.456,109.057 60.794 M111.191 61.747 C 111.704 62.288,111.939 62.290,111.469 61.750 C 111.270 61.521,111.037 61.333,110.952 61.333 C 110.868 61.333,110.975 61.520,111.191 61.747 M112.386 62.299 C 112.541 62.470,112.630 62.648,112.584 62.694 C 112.538 62.740,112.616 62.778,112.757 62.778 C 113.150 62.778,112.969 62.307,112.510 62.138 C 112.121 61.994,112.116 62.001,112.386 62.299 M114.042 63.126 C 114.294 63.283,114.500 63.468,114.500 63.539 C 114.500 63.609,114.575 63.667,114.667 63.667 C 115.005 63.667,114.819 63.334,114.342 63.088 C 113.679 62.745,113.470 62.772,114.042 63.126 M126.874 78.375 L 126.917 93.917 130.666 93.962 C 134.045 94.002,134.437 93.978,134.625 93.721 C 134.783 93.505,134.833 91.949,134.833 87.301 L 134.833 81.167 137.333 81.167 L 139.833 81.167 139.833 87.421 L 139.833 93.675 140.261 93.837 C 141.159 94.179,147.966 94.041,148.161 93.678 C 148.371 93.285,148.400 63.363,148.191 63.033 C 148.011 62.750,140.286 62.813,140.000 63.099 C 139.874 63.226,139.821 65.198,139.829 69.474 L 139.841 75.667 137.337 75.667 L 134.833 75.667 134.831 69.625 C 134.830 66.302,134.784 63.415,134.728 63.208 L 134.628 62.833 130.730 62.833 L 126.832 62.833 126.874 78.375 M180.600 62.956 C 180.270 63.286,180.505 93.657,180.839 93.836 C 181.402 94.138,188.803 93.984,189.004 93.667 C 189.350 93.118,189.207 63.421,188.856 63.104 C 188.544 62.822,180.872 62.684,180.600 62.956 M225.408 63.125 C 225.338 63.285,225.292 63.473,225.307 63.542 C 225.321 63.610,225.142 63.667,224.909 63.667 C 224.676 63.667,224.297 63.854,224.068 64.083 C 223.839 64.313,223.540 64.500,223.404 64.500 C 223.268 64.500,223.110 64.631,223.053 64.792 C 222.997 64.952,222.777 65.239,222.566 65.430 C 222.355 65.620,222.138 66.023,222.085 66.324 C 222.032 66.626,221.822 67.007,221.619 67.172 L 221.250 67.470 221.250 78.495 L 221.250 89.519 221.606 89.801 C 221.801 89.956,222.012 90.373,222.075 90.727 C 222.151 91.159,222.293 91.397,222.506 91.453 C 222.680 91.499,222.869 91.682,222.925 91.861 C 222.982 92.040,223.210 92.255,223.431 92.339 C 223.652 92.423,223.833 92.598,223.833 92.728 C 223.833 93.001,224.186 93.167,224.768 93.167 C 225.049 93.167,225.224 93.296,225.333 93.583 L 225.492 94.000 231.999 94.000 L 238.507 94.000 238.689 93.600 C 238.856 93.235,239.635 92.894,240.083 92.992 C 240.175 93.011,240.200 92.978,240.139 92.916 C 239.992 92.770,240.514 92.167,240.787 92.167 C 240.904 92.167,241.000 92.088,241.000 91.992 C 241.000 91.897,241.169 91.644,241.375 91.431 C 241.811 90.980,241.868 90.829,241.963 89.875 C 242.027 89.228,242.089 89.141,242.452 89.179 C 242.856 89.221,243.024 76.935,242.632 76.074 L 242.446 75.667 237.173 75.667 C 231.822 75.667,231.401 75.713,231.619 76.283 C 231.683 76.450,231.616 76.508,231.401 76.471 C 231.231 76.441,231.080 76.510,231.066 76.625 C 231.053 76.740,231.029 76.871,231.013 76.917 C 230.989 76.989,230.971 79.555,230.992 79.989 C 230.997 80.074,231.150 80.192,231.333 80.250 C 231.517 80.308,231.667 80.455,231.667 80.577 C 231.667 80.909,232.062 81.000,233.514 81.000 L 234.833 81.000 234.833 85.083 L 234.833 89.167 232.000 89.167 L 229.167 89.167 229.167 78.417 L 229.167 67.667 232.458 67.637 C 234.269 67.621,236.050 67.608,236.417 67.608 C 236.933 67.609,237.124 67.691,237.265 67.970 C 237.365 68.169,237.566 68.463,237.712 68.624 C 237.857 68.785,238.001 69.253,238.030 69.663 C 238.102 70.665,238.453 70.828,240.553 70.831 C 242.798 70.834,242.865 70.786,242.805 69.220 C 242.762 68.088,242.720 67.949,242.379 67.819 C 242.071 67.702,242.000 67.549,242.000 67.001 C 242.000 66.443,241.928 66.293,241.583 66.136 C 241.227 65.974,241.097 65.738,241.136 65.325 C 241.141 65.274,240.992 65.138,240.805 65.021 C 240.617 64.904,240.515 64.889,240.576 64.988 C 240.637 65.086,240.607 65.167,240.510 65.167 C 240.413 65.167,240.333 65.017,240.333 64.833 C 240.333 64.621,240.222 64.500,240.027 64.500 C 239.858 64.500,239.635 64.313,239.530 64.083 C 239.401 63.799,239.207 63.667,238.920 63.667 C 238.689 63.667,238.499 63.573,238.499 63.458 C 238.494 62.757,225.711 62.432,225.408 63.125 M275.669 64.958 C 275.673 67.788,275.409 67.573,278.952 67.635 C 282.512 67.696,283.144 67.560,283.449 66.666 C 283.692 65.953,283.726 63.845,283.504 63.261 L 283.342 62.833 279.504 62.833 L 275.667 62.833 275.669 64.958 M302.200 63.033 C 302.059 63.174,302.000 64.115,302.000 66.200 L 302.000 69.167 298.708 69.178 C 294.465 69.192,293.753 69.299,294.104 69.867 C 294.149 69.940,293.926 70.000,293.607 70.000 C 292.823 70.000,292.500 70.145,292.500 70.497 C 292.500 70.694,292.327 70.826,291.978 70.896 C 291.437 71.004,290.833 71.553,290.833 71.936 C 290.833 72.057,290.684 72.235,290.502 72.332 C 290.320 72.430,290.124 72.694,290.068 72.920 C 290.011 73.146,289.903 73.293,289.829 73.247 C 289.531 73.063,289.186 73.685,289.223 74.341 C 289.252 74.874,289.184 75.059,288.886 75.255 L 288.512 75.500 288.548 81.762 C 288.581 87.530,288.606 88.036,288.875 88.187 C 289.084 88.303,289.167 88.558,289.167 89.082 C 289.167 89.625,289.253 89.875,289.499 90.047 C 289.682 90.175,289.782 90.329,289.721 90.390 C 289.661 90.450,289.690 90.500,289.787 90.500 C 289.884 90.500,290.010 90.685,290.067 90.912 C 290.124 91.138,290.320 91.404,290.502 91.501 C 290.684 91.599,290.833 91.787,290.833 91.919 C 290.833 92.052,291.011 92.205,291.229 92.260 C 291.447 92.314,291.705 92.536,291.804 92.752 C 291.938 93.047,292.141 93.159,292.617 93.198 C 293.023 93.231,293.250 93.333,293.250 93.483 C 293.250 93.934,293.982 93.977,301.838 93.988 C 309.575 94.000,309.766 93.992,310.046 93.665 C 310.433 93.214,310.486 63.632,310.101 63.125 C 309.822 62.758,302.560 62.673,302.200 63.033 M115.517 64.466 C 115.620 64.631,115.847 64.776,116.022 64.789 C 116.197 64.802,116.297 64.743,116.244 64.657 C 116.191 64.570,116.039 64.500,115.907 64.500 C 115.775 64.500,115.667 64.425,115.667 64.333 C 115.667 64.242,115.591 64.167,115.499 64.167 C 115.393 64.167,115.400 64.277,115.517 64.466 M116.333 66.516 C 116.333 66.872,116.594 66.945,116.723 66.625 C 116.772 66.504,116.813 66.543,116.820 66.718 C 116.827 66.884,116.905 66.975,116.993 66.921 C 117.231 66.774,117.022 66.378,116.655 66.282 C 116.420 66.221,116.333 66.284,116.333 66.516 M159.333 69.341 C 159.333 69.428,159.221 69.500,159.083 69.500 C 158.946 69.500,158.852 69.589,158.875 69.698 C 158.898 69.808,158.804 69.915,158.667 69.937 C 157.195 70.176,157.142 70.194,157.233 70.433 C 157.286 70.570,157.218 70.713,157.081 70.756 C 156.945 70.799,156.702 70.883,156.542 70.943 C 156.381 71.004,156.192 71.040,156.121 71.025 C 156.051 71.010,155.921 71.186,155.834 71.415 C 155.746 71.645,155.579 71.834,155.462 71.836 C 155.315 71.838,155.327 71.888,155.500 72.000 C 155.750 72.162,155.546 72.258,155.113 72.182 C 155.037 72.169,155.023 72.235,155.081 72.329 C 155.139 72.423,155.107 72.500,155.010 72.500 C 154.913 72.500,154.833 72.688,154.833 72.917 C 154.833 73.171,154.738 73.333,154.589 73.333 C 154.050 73.333,154.007 73.965,154.007 81.790 C 154.007 89.727,154.061 90.495,154.625 90.499 C 154.803 90.500,154.920 90.950,154.853 91.375 C 154.842 91.444,154.985 91.500,155.171 91.500 C 155.377 91.500,155.570 91.662,155.667 91.917 C 155.764 92.172,155.956 92.333,156.163 92.333 C 156.411 92.333,156.500 92.443,156.500 92.750 C 156.500 93.064,156.587 93.167,156.855 93.167 C 157.051 93.167,157.357 93.335,157.536 93.542 C 157.861 93.916,157.869 93.917,164.056 93.968 C 170.774 94.023,171.261 93.992,171.419 93.494 C 171.484 93.287,171.671 93.167,171.928 93.167 C 172.180 93.167,172.333 93.071,172.333 92.913 C 172.333 92.774,172.521 92.574,172.750 92.470 C 172.979 92.365,173.167 92.212,173.167 92.130 C 173.167 92.048,173.233 92.022,173.315 92.072 C 173.510 92.192,174.000 91.437,174.000 91.017 C 174.000 90.808,174.131 90.671,174.364 90.637 C 174.678 90.591,174.737 90.457,174.794 89.667 C 174.830 89.162,174.940 88.675,175.038 88.583 C 175.161 88.467,175.175 88.493,175.081 88.667 C 175.001 88.815,175.008 88.860,175.098 88.778 C 175.182 88.701,175.256 88.589,175.264 88.528 C 175.272 88.467,175.347 88.267,175.431 88.083 C 175.615 87.681,175.637 76.109,175.455 75.458 C 175.385 75.206,175.216 75.000,175.080 75.000 C 174.899 75.000,174.833 74.803,174.833 74.263 C 174.833 73.743,174.721 73.387,174.452 73.054 C 174.242 72.795,173.981 72.377,173.872 72.125 C 173.763 71.873,173.565 71.667,173.431 71.667 C 173.298 71.667,173.140 71.512,173.080 71.324 C 173.020 71.135,172.790 70.912,172.569 70.828 C 172.348 70.744,172.167 70.565,172.167 70.431 C 172.167 70.270,171.912 70.149,171.414 70.074 C 170.991 70.011,170.592 69.842,170.503 69.689 C 170.415 69.539,170.341 69.482,170.338 69.562 C 170.336 69.642,170.209 69.605,170.058 69.479 C 169.724 69.201,159.333 69.068,159.333 69.341 M200.000 69.285 C 199.862 69.338,199.563 69.511,199.333 69.670 C 199.104 69.829,198.601 70.012,198.215 70.076 C 197.751 70.154,197.481 70.296,197.418 70.497 C 197.365 70.664,197.137 70.847,196.911 70.903 C 196.653 70.968,196.500 71.125,196.500 71.325 C 196.500 71.526,196.365 71.663,196.132 71.697 C 195.909 71.729,195.728 71.902,195.673 72.135 C 195.624 72.346,195.521 72.496,195.445 72.468 C 195.254 72.397,194.846 73.170,194.839 73.618 C 194.836 73.820,194.646 74.261,194.417 74.599 L 194.000 75.213 194.000 81.762 C 194.000 88.298,194.068 89.167,194.579 89.167 C 194.764 89.167,194.833 89.346,194.833 89.820 C 194.833 90.592,194.976 91.034,195.184 90.906 C 195.266 90.855,195.333 90.931,195.333 91.073 C 195.333 91.216,195.408 91.333,195.500 91.333 C 195.592 91.333,195.667 91.487,195.667 91.675 C 195.667 91.905,195.830 92.074,196.166 92.192 C 196.441 92.287,196.624 92.433,196.573 92.516 C 196.522 92.599,196.560 92.667,196.657 92.667 C 196.754 92.667,196.833 92.768,196.833 92.891 C 196.833 93.028,197.034 93.122,197.346 93.131 C 197.669 93.140,198.005 93.303,198.255 93.573 L 198.651 94.000 204.982 94.000 C 211.386 94.000,211.572 93.984,211.581 93.417 C 211.582 93.325,211.883 93.212,212.250 93.167 C 212.735 93.106,212.962 92.981,213.081 92.708 C 213.172 92.502,213.376 92.333,213.536 92.333 C 213.707 92.333,213.870 92.162,213.932 91.917 C 213.995 91.665,214.155 91.500,214.337 91.500 C 214.561 91.500,214.666 91.321,214.751 90.792 C 214.819 90.372,215.009 89.971,215.217 89.807 C 215.769 89.373,215.742 74.687,215.187 73.748 C 214.993 73.418,214.833 73.038,214.833 72.903 C 214.833 72.768,214.646 72.587,214.417 72.500 C 214.188 72.413,213.998 72.246,213.995 72.129 C 213.987 71.772,213.026 70.833,212.669 70.833 C 212.451 70.833,212.333 70.723,212.333 70.518 C 212.333 70.150,212.022 70.000,211.256 70.000 C 210.860 70.000,210.683 69.913,210.625 69.690 C 210.578 69.513,210.338 69.340,210.063 69.286 C 209.431 69.161,200.323 69.160,200.000 69.285 M248.809 69.278 C 248.360 69.398,248.342 69.850,248.380 80.014 L 248.417 89.779 248.875 90.440 C 249.127 90.804,249.333 91.191,249.333 91.301 C 249.333 91.482,249.424 91.519,249.792 91.490 C 249.860 91.485,249.957 91.654,250.007 91.865 C 250.060 92.092,250.242 92.271,250.449 92.301 C 250.661 92.332,250.843 92.515,250.904 92.760 C 250.973 93.032,251.124 93.167,251.362 93.167 C 251.558 93.167,251.964 93.354,252.265 93.583 L 252.811 94.000 261.304 94.000 C 269.057 94.000,269.807 93.976,269.904 93.724 C 270.171 93.028,269.989 69.698,269.714 69.470 C 269.262 69.095,262.041 69.157,261.762 69.539 C 261.646 69.698,261.502 69.779,261.442 69.720 C 261.382 69.660,261.333 69.699,261.333 69.806 C 261.333 69.913,261.413 70.000,261.510 70.000 C 261.612 70.000,261.629 70.088,261.552 70.208 C 261.477 70.323,261.379 74.654,261.333 79.833 L 261.250 89.250 258.792 89.296 L 256.333 89.342 256.333 79.360 L 256.333 69.379 255.560 69.273 C 254.713 69.157,249.250 69.161,248.809 69.278 M275.875 69.277 C 275.711 69.343,275.667 71.981,275.667 81.681 L 275.667 94.000 279.504 94.000 L 283.342 94.000 283.506 93.567 C 283.736 92.963,283.716 70.525,283.486 69.864 C 283.361 69.505,283.175 69.343,282.803 69.269 C 282.198 69.148,276.177 69.155,275.875 69.277 M321.405 69.402 C 321.228 69.526,321.008 69.655,320.917 69.689 C 320.825 69.722,320.769 69.806,320.792 69.875 C 320.815 69.944,320.567 70.000,320.242 70.000 C 319.835 70.000,319.536 70.123,319.284 70.394 C 319.082 70.610,318.748 70.840,318.542 70.905 C 318.323 70.973,318.167 71.157,318.167 71.345 C 318.167 71.624,318.013 71.702,317.556 71.655 C 317.496 71.649,317.349 71.874,317.231 72.155 C 317.113 72.437,316.933 72.667,316.832 72.667 C 316.730 72.667,316.693 72.742,316.750 72.833 C 316.807 72.925,316.774 73.000,316.677 73.000 C 316.579 73.000,316.500 73.260,316.500 73.577 C 316.500 73.990,316.402 74.207,316.156 74.339 C 315.874 74.490,315.849 74.568,316.017 74.771 C 316.184 74.971,316.178 75.009,315.987 74.968 C 315.786 74.924,315.743 75.947,315.706 81.716 C 315.663 88.565,315.707 89.167,316.256 89.167 C 316.390 89.167,316.491 89.223,316.480 89.292 C 316.379 89.930,316.536 90.541,316.819 90.615 C 316.995 90.661,317.182 90.874,317.236 91.088 C 317.290 91.302,317.476 91.523,317.649 91.578 C 317.822 91.633,318.003 91.825,318.050 92.006 C 318.099 92.193,318.277 92.333,318.466 92.333 C 318.680 92.333,318.834 92.481,318.902 92.750 C 318.978 93.054,319.118 93.167,319.420 93.167 C 319.713 93.167,319.833 93.258,319.833 93.479 C 319.833 93.958,320.366 94.000,326.496 94.000 C 331.910 94.000,333.324 93.889,333.073 93.483 C 333.022 93.401,333.169 93.261,333.400 93.173 C 334.077 92.916,335.667 91.455,335.667 91.091 C 335.667 90.971,335.817 90.833,336.000 90.785 C 336.225 90.726,336.333 90.558,336.333 90.266 C 336.333 90.028,336.406 89.833,336.496 89.833 C 336.851 89.833,337.167 88.825,337.167 87.687 C 337.167 86.098,337.075 86.026,335.043 86.028 C 332.619 86.029,332.500 86.068,332.500 86.868 C 332.500 87.391,332.430 87.550,332.167 87.618 C 331.983 87.666,331.833 87.845,331.833 88.015 C 331.833 88.191,331.616 88.437,331.328 88.586 C 331.050 88.730,330.867 88.919,330.921 89.007 C 331.021 89.168,330.731 89.215,329.667 89.208 C 329.346 89.206,327.865 89.196,326.375 89.185 L 323.667 89.167 323.667 86.750 L 323.667 84.333 330.217 84.333 C 335.089 84.333,336.818 84.282,336.967 84.133 C 337.178 83.922,337.270 74.962,337.066 74.430 C 337.010 74.285,336.822 74.167,336.649 74.167 C 336.385 74.167,336.333 74.041,336.333 73.401 C 336.333 72.788,336.270 72.619,336.015 72.552 C 335.841 72.507,335.659 72.321,335.611 72.139 C 335.564 71.957,335.369 71.768,335.179 71.718 C 334.863 71.636,334.759 71.465,334.815 71.121 C 334.826 71.050,334.610 70.947,334.335 70.892 C 333.991 70.823,333.833 70.693,333.833 70.479 C 333.833 70.307,333.740 70.161,333.625 70.154 C 332.864 70.107,331.978 69.837,332.074 69.681 C 332.392 69.167,322.124 68.898,321.405 69.402 M167.000 81.583 L 167.000 89.167 164.500 89.167 L 162.000 89.167 162.000 81.583 L 162.000 74.000 164.500 74.000 L 167.000 74.000 167.000 81.583 M207.667 81.583 L 207.667 89.167 204.833 89.167 L 202.000 89.167 202.000 81.583 L 202.000 74.000 204.833 74.000 L 207.667 74.000 207.667 81.583 M302.000 81.583 L 302.000 89.167 299.583 89.167 L 297.167 89.167 297.167 81.583 L 297.167 74.000 299.583 74.000 L 302.000 74.000 302.000 81.583 M329.167 76.833 L 329.167 79.667 326.417 79.667 L 323.667 79.667 323.667 76.833 L 323.667 74.000 326.417 74.000 L 329.167 74.000 329.167 76.833 M115.877 76.994 C 115.673 77.227,115.278 77.717,115.001 78.083 C 114.257 79.068,113.122 80.167,112.849 80.167 C 112.717 80.167,112.491 80.269,112.346 80.393 C 112.081 80.622,110.682 81.345,109.000 82.123 C 108.496 82.357,107.896 82.647,107.667 82.769 C 107.438 82.890,107.063 83.074,106.833 83.176 C 106.604 83.279,106.068 83.544,105.642 83.765 C 105.216 83.986,104.757 84.167,104.621 84.167 C 104.485 84.167,104.285 84.274,104.177 84.405 C 104.068 84.535,103.645 84.756,103.237 84.895 C 102.829 85.034,102.378 85.265,102.235 85.407 C 102.093 85.550,101.804 85.667,101.594 85.667 C 101.384 85.667,101.021 85.816,100.789 85.999 C 100.556 86.182,100.190 86.403,99.974 86.489 C 99.587 86.644,99.588 86.646,100.043 86.656 C 100.334 86.663,100.635 86.514,100.864 86.250 C 101.113 85.964,101.398 85.833,101.774 85.833 C 102.095 85.833,102.443 85.703,102.619 85.516 C 102.782 85.342,103.227 85.116,103.606 85.015 C 103.984 84.914,104.383 84.724,104.492 84.593 C 104.601 84.462,104.928 84.304,105.220 84.241 C 105.511 84.179,105.884 83.987,106.048 83.814 C 106.212 83.641,106.518 83.500,106.727 83.500 C 106.937 83.500,107.276 83.322,107.481 83.104 C 107.707 82.863,108.120 82.672,108.538 82.616 C 108.915 82.565,109.288 82.408,109.367 82.267 C 109.446 82.126,109.827 81.926,110.214 81.823 C 110.600 81.720,111.029 81.541,111.167 81.426 C 111.304 81.310,111.679 81.081,112.000 80.916 C 113.612 80.090,113.833 79.950,113.833 79.759 C 113.833 79.646,114.021 79.468,114.250 79.364 C 114.479 79.259,114.667 79.086,114.667 78.979 C 114.667 78.793,114.832 78.596,115.891 77.521 C 116.152 77.256,116.339 76.934,116.308 76.805 C 116.266 76.638,116.144 76.692,115.877 76.994 M97.833 87.429 C 96.781 87.973,96.529 88.162,96.853 88.164 C 97.092 88.165,97.467 88.028,97.686 87.858 C 97.904 87.688,98.358 87.459,98.694 87.350 C 99.029 87.240,99.346 87.042,99.397 86.909 C 99.526 86.572,99.435 86.603,97.833 87.429 M95.740 88.414 C 95.562 88.550,95.117 88.744,94.750 88.846 C 94.383 88.947,93.933 89.163,93.750 89.326 C 93.567 89.489,93.196 89.675,92.927 89.739 C 92.657 89.803,92.233 90.001,91.984 90.178 C 91.736 90.355,91.468 90.502,91.391 90.505 C 91.313 90.508,90.875 90.695,90.417 90.920 C 89.958 91.146,89.500 91.331,89.397 91.332 C 89.295 91.333,89.033 91.472,88.814 91.641 C 88.596 91.811,88.198 92.003,87.930 92.068 C 87.662 92.134,87.258 92.333,87.032 92.510 C 86.806 92.688,86.544 92.833,86.449 92.833 C 86.280 92.833,85.873 93.018,82.641 94.564 C 81.757 94.987,80.942 95.333,80.832 95.333 C 80.722 95.333,80.409 95.521,80.136 95.750 C 79.864 95.979,79.433 96.167,79.180 96.167 C 78.926 96.167,78.583 96.317,78.417 96.500 C 78.251 96.683,78.025 96.833,77.916 96.833 C 77.806 96.833,77.364 97.021,76.933 97.250 C 76.502 97.479,76.051 97.667,75.930 97.667 C 75.810 97.667,75.530 97.809,75.308 97.984 C 75.086 98.158,74.585 98.387,74.194 98.493 C 73.803 98.598,73.441 98.793,73.390 98.925 C 73.339 99.058,73.166 99.167,73.006 99.167 C 72.845 99.167,72.272 99.381,71.732 99.644 C 71.192 99.906,70.037 100.466,69.167 100.889 C 68.296 101.311,67.383 101.703,67.137 101.760 C 66.892 101.817,66.562 102.007,66.403 102.182 C 66.245 102.357,65.916 102.500,65.673 102.500 C 65.430 102.500,64.977 102.688,64.667 102.917 C 64.356 103.146,64.001 103.333,63.877 103.333 C 63.753 103.333,63.299 103.521,62.869 103.750 C 62.438 103.979,61.994 104.167,61.881 104.167 C 61.769 104.167,61.356 104.335,60.963 104.542 C 59.082 105.531,55.551 104.915,53.789 103.292 C 53.085 102.643,52.500 102.477,52.500 102.927 C 52.500 103.069,52.579 103.137,52.676 103.077 C 52.867 102.960,54.167 103.785,54.167 104.023 C 54.167 104.102,54.273 104.167,54.404 104.167 C 54.534 104.167,54.853 104.341,55.112 104.554 C 56.095 105.361,60.573 105.417,61.486 104.634 C 61.667 104.479,62.080 104.302,62.403 104.242 C 62.725 104.181,63.144 103.997,63.333 103.833 C 63.522 103.669,63.936 103.486,64.253 103.427 C 64.573 103.367,64.907 103.174,65.004 102.993 C 65.126 102.765,65.353 102.667,65.756 102.667 C 66.109 102.667,66.461 102.539,66.663 102.337 C 66.845 102.155,67.330 101.922,67.742 101.818 C 68.153 101.714,68.576 101.526,68.681 101.399 C 68.786 101.273,69.160 101.092,69.512 100.997 C 69.864 100.902,70.253 100.723,70.377 100.599 C 70.501 100.475,70.837 100.323,71.123 100.260 C 71.409 100.197,71.734 100.036,71.845 99.902 C 71.956 99.769,72.379 99.576,72.786 99.473 C 73.193 99.371,73.613 99.148,73.720 98.977 C 73.844 98.777,74.107 98.667,74.457 98.667 C 74.767 98.667,75.135 98.532,75.314 98.353 C 75.487 98.180,75.918 97.945,76.272 97.832 C 76.627 97.718,77.034 97.522,77.178 97.398 C 77.321 97.273,77.680 97.122,77.975 97.063 C 78.270 97.004,78.603 96.826,78.715 96.666 C 78.826 96.507,79.230 96.324,79.613 96.259 C 79.995 96.195,80.347 96.038,80.396 95.911 C 80.444 95.784,80.894 95.562,81.394 95.416 C 81.894 95.271,82.341 95.053,82.387 94.933 C 82.433 94.813,82.741 94.671,83.071 94.618 C 83.402 94.564,83.868 94.366,84.108 94.177 C 84.349 93.988,84.675 93.833,84.833 93.833 C 84.992 93.833,85.301 93.698,85.519 93.532 C 85.738 93.366,86.235 93.138,86.625 93.025 C 87.015 92.912,87.333 92.719,87.333 92.596 C 87.333 92.364,87.826 92.173,88.433 92.169 C 88.625 92.168,88.911 92.024,89.068 91.850 C 89.226 91.676,89.603 91.486,89.906 91.430 C 90.209 91.373,90.628 91.178,90.837 90.996 C 91.047 90.815,91.391 90.667,91.602 90.667 C 91.814 90.667,92.121 90.524,92.285 90.350 C 92.449 90.175,92.900 89.948,93.286 89.845 C 93.673 89.741,94.054 89.541,94.133 89.400 C 94.212 89.258,94.585 89.101,94.962 89.051 C 95.380 88.995,95.793 88.804,96.019 88.563 C 96.431 88.124,96.247 88.026,95.740 88.414 " stroke="none" fill="#5cdcf0" fill-rule="evenodd"></path><path id="path4" d="M57.146 38.250 C 57.134 38.296,57.116 38.427,57.104 38.542 C 57.091 38.671,56.704 38.786,56.083 38.845 C 54.845 38.962,54.678 39.011,54.267 39.375 C 54.085 39.535,53.847 39.667,53.737 39.667 C 53.626 39.667,53.488 39.857,53.430 40.090 C 53.371 40.323,53.250 40.468,53.161 40.413 C 52.564 40.044,52.055 45.644,52.603 46.532 C 52.782 46.821,53.295 46.642,53.769 46.125 C 55.515 44.222,58.384 43.906,61.077 45.320 C 61.440 45.511,61.860 45.667,62.009 45.667 C 62.159 45.667,62.412 45.811,62.572 45.988 C 62.732 46.165,63.154 46.358,63.510 46.418 C 63.866 46.478,64.328 46.661,64.537 46.824 C 64.746 46.987,65.104 47.178,65.333 47.249 C 65.563 47.319,66.087 47.554,66.499 47.772 C 66.910 47.989,67.333 48.167,67.437 48.167 C 67.541 48.167,67.713 48.271,67.819 48.399 C 67.925 48.527,68.264 48.679,68.572 48.737 C 68.881 48.795,69.309 48.980,69.525 49.148 C 69.740 49.316,70.104 49.505,70.333 49.568 C 70.563 49.630,71.125 49.860,71.583 50.080 C 73.782 51.131,75.623 51.967,76.000 52.084 C 76.229 52.154,76.596 52.352,76.814 52.523 C 77.033 52.694,77.337 52.833,77.490 52.833 C 77.643 52.833,78.023 53.021,78.333 53.250 C 78.644 53.479,79.015 53.666,79.157 53.665 C 79.300 53.665,80.017 53.957,80.750 54.316 C 82.778 55.308,84.205 55.955,84.667 56.090 C 84.896 56.158,85.262 56.352,85.481 56.523 C 85.699 56.694,85.961 56.833,86.062 56.833 C 86.163 56.833,86.640 57.021,87.123 57.250 C 87.605 57.479,88.395 57.854,88.877 58.083 C 89.360 58.313,89.817 58.500,89.893 58.500 C 89.969 58.500,90.221 58.650,90.455 58.833 C 90.688 59.017,91.064 59.167,91.290 59.167 C 91.517 59.167,91.921 59.351,92.189 59.577 C 92.457 59.802,92.956 60.038,93.297 60.101 C 93.638 60.164,94.096 60.354,94.314 60.524 C 94.533 60.694,94.795 60.834,94.897 60.835 C 95.000 60.836,95.458 61.021,95.917 61.246 C 96.375 61.472,96.872 61.659,97.021 61.661 C 97.170 61.664,97.382 61.774,97.491 61.906 C 97.600 62.038,97.928 62.195,98.220 62.255 C 98.511 62.315,99.013 62.538,99.333 62.750 C 99.654 62.962,100.179 63.189,100.500 63.255 C 100.821 63.321,101.271 63.506,101.500 63.666 C 101.729 63.825,102.104 64.011,102.333 64.077 C 102.843 64.224,104.046 64.743,104.833 65.154 C 105.154 65.321,105.668 65.513,105.976 65.580 C 106.284 65.646,106.801 65.881,107.124 66.101 C 107.448 66.320,107.880 66.500,108.084 66.500 C 108.288 66.500,108.646 66.650,108.879 66.833 C 109.112 67.017,109.391 67.167,109.498 67.167 C 110.041 67.167,113.039 68.623,114.130 69.417 C 115.678 70.543,115.118 73.333,113.343 73.333 C 112.991 73.333,112.759 73.458,112.568 73.750 C 112.381 74.036,112.143 74.167,111.813 74.167 C 111.537 74.167,111.208 74.309,111.045 74.499 C 110.889 74.682,110.513 74.878,110.209 74.935 C 109.906 74.992,109.564 75.174,109.448 75.339 C 109.332 75.505,108.977 75.665,108.660 75.695 C 108.263 75.733,108.034 75.861,107.927 76.107 C 107.813 76.366,107.580 76.485,107.075 76.542 C 106.670 76.588,106.231 76.769,106.023 76.977 C 105.827 77.173,105.483 77.333,105.259 77.333 C 105.034 77.333,104.648 77.521,104.401 77.750 C 104.154 77.979,103.775 78.167,103.560 78.167 C 103.345 78.167,103.076 78.317,102.961 78.500 C 102.847 78.683,102.579 78.833,102.366 78.833 C 101.857 78.833,101.333 79.121,101.333 79.401 C 101.333 79.542,101.048 79.656,100.548 79.712 C 100.052 79.768,99.667 79.920,99.500 80.125 C 99.356 80.304,98.940 80.505,98.577 80.573 C 98.214 80.641,97.782 80.839,97.619 81.015 C 97.455 81.190,97.207 81.333,97.068 81.333 C 96.929 81.333,96.540 81.521,96.202 81.750 C 95.865 81.979,95.447 82.167,95.272 82.167 C 95.098 82.167,94.781 82.354,94.569 82.583 C 94.298 82.875,94.008 83.000,93.597 83.000 C 93.196 83.000,92.959 83.098,92.845 83.311 C 92.746 83.497,92.413 83.665,92.015 83.728 C 91.650 83.787,91.254 83.973,91.134 84.142 C 91.015 84.311,90.646 84.500,90.315 84.561 C 89.983 84.623,89.578 84.822,89.414 85.003 C 89.249 85.185,88.944 85.333,88.736 85.333 C 88.354 85.333,87.833 85.725,87.833 86.012 C 87.833 86.097,87.542 86.167,87.187 86.167 C 86.719 86.167,86.478 86.262,86.312 86.510 C 86.163 86.735,85.830 86.888,85.353 86.952 C 84.854 87.019,84.598 87.141,84.547 87.339 C 84.498 87.526,84.239 87.666,83.819 87.733 C 83.432 87.795,83.083 87.972,82.960 88.169 C 82.846 88.351,82.579 88.500,82.366 88.500 C 81.842 88.500,81.333 88.791,81.333 89.089 C 81.333 89.261,81.145 89.333,80.697 89.333 C 80.225 89.333,79.966 89.442,79.698 89.750 C 79.442 90.044,79.166 90.167,78.760 90.167 C 78.376 90.167,78.033 90.306,77.734 90.583 C 77.487 90.812,77.108 91.000,76.892 91.000 C 76.677 91.000,76.350 91.150,76.167 91.333 C 75.983 91.517,75.659 91.667,75.446 91.667 C 75.233 91.667,74.882 91.854,74.667 92.083 C 74.399 92.368,74.097 92.500,73.713 92.500 C 73.327 92.500,73.029 92.631,72.765 92.917 C 72.514 93.188,72.199 93.333,71.864 93.333 C 71.547 93.333,71.178 93.493,70.901 93.750 C 70.642 93.990,70.252 94.167,69.982 94.167 C 69.690 94.167,69.447 94.287,69.341 94.485 C 69.238 94.678,68.906 94.848,68.500 94.917 C 68.094 94.985,67.762 95.156,67.659 95.348 C 67.541 95.569,67.308 95.667,66.903 95.667 C 66.501 95.667,66.188 95.797,65.902 96.083 C 65.616 96.369,65.302 96.500,64.901 96.500 C 64.504 96.500,64.200 96.625,63.950 96.891 C 63.743 97.112,63.294 97.327,62.917 97.387 C 62.551 97.445,62.165 97.610,62.060 97.754 C 61.955 97.898,61.592 98.060,61.254 98.115 C 60.916 98.170,60.553 98.354,60.446 98.524 C 60.150 98.999,57.533 98.980,57.122 98.500 C 56.960 98.311,56.630 98.167,56.359 98.167 C 56.081 98.167,55.694 97.993,55.432 97.750 C 55.185 97.521,54.927 97.333,54.858 97.333 C 54.790 97.333,54.415 97.027,54.025 96.653 C 52.987 95.655,52.333 95.504,52.333 96.262 C 52.333 96.766,52.384 96.833,52.765 96.833 C 53.033 96.833,53.524 97.110,54.057 97.562 C 54.530 97.963,55.104 98.347,55.333 98.415 C 55.563 98.483,56.012 98.698,56.333 98.894 C 57.108 99.367,60.429 99.427,60.941 98.978 C 61.111 98.828,61.438 98.654,61.667 98.589 C 62.061 98.479,62.832 98.142,64.767 97.233 C 65.234 97.013,65.693 96.833,65.786 96.833 C 65.879 96.833,66.134 96.695,66.353 96.526 C 66.571 96.357,66.985 96.173,67.272 96.117 C 67.560 96.062,68.077 95.825,68.421 95.591 C 68.765 95.358,69.214 95.167,69.420 95.167 C 69.625 95.167,69.886 95.054,70.000 94.917 C 70.114 94.779,70.283 94.667,70.375 94.667 C 70.524 94.667,71.310 94.319,73.417 93.322 C 73.783 93.148,74.346 92.894,74.667 92.756 C 74.987 92.619,75.362 92.437,75.500 92.351 C 75.742 92.201,76.773 91.721,78.333 91.031 C 80.020 90.286,80.333 90.122,80.333 89.989 C 80.333 89.911,80.608 89.797,80.944 89.734 C 81.280 89.671,81.808 89.448,82.116 89.238 C 82.425 89.029,82.895 88.810,83.161 88.751 C 83.426 88.693,83.733 88.538,83.842 88.406 C 83.951 88.274,84.130 88.167,84.239 88.167 C 84.348 88.167,85.178 87.792,86.083 87.333 C 86.989 86.875,87.823 86.500,87.936 86.500 C 88.049 86.500,88.364 86.313,88.636 86.083 C 88.909 85.854,89.243 85.667,89.380 85.667 C 89.517 85.667,90.261 85.339,91.034 84.937 C 91.807 84.536,92.622 84.151,92.845 84.082 C 93.068 84.013,93.438 83.825,93.667 83.666 C 93.896 83.506,94.332 83.321,94.636 83.255 C 94.940 83.189,95.229 83.031,95.278 82.903 C 95.327 82.775,95.679 82.587,96.059 82.486 C 96.439 82.385,96.862 82.207,97.000 82.090 C 97.138 81.972,97.888 81.595,98.667 81.250 C 99.446 80.905,100.202 80.521,100.346 80.395 C 100.491 80.269,100.767 80.167,100.959 80.167 C 101.151 80.167,101.520 79.991,101.779 79.775 C 102.038 79.560,102.469 79.330,102.737 79.265 C 103.005 79.200,103.408 79.001,103.634 78.823 C 103.860 78.645,104.128 78.500,104.230 78.500 C 104.332 78.500,105.466 77.980,106.750 77.344 C 108.033 76.708,109.346 76.069,109.667 75.924 C 109.987 75.779,110.475 75.539,110.750 75.390 C 111.025 75.241,111.587 74.950,112.000 74.742 C 114.055 73.708,114.481 73.425,115.274 72.569 C 116.022 71.762,116.146 71.528,116.245 70.730 C 116.347 69.917,116.399 69.822,116.721 69.867 C 117.066 69.914,117.086 69.847,117.131 68.458 C 117.162 67.530,117.117 67.000,117.006 67.000 C 116.911 67.000,116.832 66.869,116.831 66.708 C 116.829 66.464,116.803 66.456,116.673 66.662 C 116.438 67.033,116.357 66.836,116.315 65.788 C 116.281 64.943,116.193 64.768,115.825 64.803 C 115.774 64.807,115.642 64.666,115.532 64.489 C 115.396 64.271,115.389 64.167,115.510 64.167 C 115.609 64.167,115.578 64.054,115.440 63.917 C 115.303 63.779,115.035 63.667,114.845 63.667 C 114.655 63.667,114.500 63.608,114.500 63.536 C 114.500 63.310,113.569 62.844,113.035 62.803 C 112.753 62.782,112.554 62.715,112.591 62.654 C 112.707 62.467,112.032 61.961,111.831 62.085 C 111.727 62.149,111.494 62.044,111.313 61.850 C 110.944 61.454,109.867 60.958,109.595 61.058 C 109.497 61.095,109.246 60.969,109.037 60.778 C 108.782 60.546,108.470 60.445,108.091 60.471 C 107.780 60.492,107.478 60.432,107.419 60.338 C 107.361 60.244,107.402 60.167,107.511 60.167 C 108.104 60.167,107.202 59.677,106.528 59.634 C 106.015 59.600,105.764 59.513,105.792 59.375 C 105.815 59.260,105.683 59.167,105.500 59.167 C 105.317 59.167,105.167 59.092,105.167 59.000 C 105.167 58.908,105.110 58.842,105.042 58.853 C 104.648 58.915,104.160 58.812,104.240 58.683 C 104.340 58.520,103.556 58.190,102.750 58.056 C 102.475 58.010,102.063 57.810,101.833 57.611 C 101.261 57.115,100.591 56.742,100.758 57.013 C 100.952 57.327,100.460 56.997,100.204 56.642 C 100.076 56.465,99.882 56.389,99.718 56.452 C 99.514 56.530,99.481 56.497,99.588 56.320 C 99.703 56.129,99.683 56.122,99.485 56.282 C 99.166 56.540,98.766 56.475,98.348 56.097 C 98.164 55.930,97.767 55.740,97.465 55.675 C 97.163 55.609,96.932 55.479,96.950 55.385 C 96.969 55.291,96.669 55.113,96.284 54.988 C 95.898 54.863,95.484 54.646,95.363 54.506 C 95.174 54.287,95.157 54.286,95.250 54.500 C 95.310 54.637,95.222 54.596,95.054 54.408 C 94.887 54.220,94.544 54.059,94.292 54.050 C 94.040 54.041,93.692 54.026,93.519 54.017 C 93.347 54.008,93.168 53.855,93.121 53.678 C 93.064 53.460,92.827 53.316,92.393 53.235 C 92.040 53.169,91.659 52.995,91.547 52.849 C 91.435 52.703,91.342 52.645,91.339 52.720 C 91.336 52.796,91.213 52.737,91.066 52.590 C 90.910 52.433,90.667 52.364,90.482 52.422 C 90.307 52.478,90.167 52.443,90.167 52.345 C 90.167 52.247,90.026 52.167,89.854 52.167 C 89.682 52.167,89.451 52.059,89.341 51.926 C 89.232 51.794,88.904 51.663,88.613 51.635 C 88.217 51.596,88.083 51.502,88.083 51.258 C 88.083 51.000,87.947 50.922,87.417 50.876 C 86.519 50.799,86.290 50.706,86.432 50.475 C 86.507 50.355,86.479 50.327,86.358 50.402 C 86.251 50.467,86.047 50.404,85.903 50.261 C 85.756 50.113,85.360 50.000,84.988 50.000 C 84.628 50.000,84.333 49.920,84.333 49.821 C 84.333 49.611,83.978 49.229,83.774 49.221 C 83.551 49.212,83.011 48.784,83.080 48.672 C 83.115 48.616,82.956 48.555,82.729 48.536 C 82.441 48.513,82.351 48.565,82.432 48.709 C 82.524 48.873,82.501 48.873,82.324 48.708 C 82.201 48.594,81.979 48.500,81.831 48.500 C 81.684 48.500,81.399 48.347,81.198 48.160 C 80.997 47.973,80.833 47.876,80.833 47.944 C 80.833 48.011,80.743 47.977,80.633 47.867 C 80.523 47.757,80.144 47.667,79.790 47.667 C 79.436 47.667,79.189 47.598,79.241 47.515 C 79.471 47.143,79.127 46.910,78.289 46.872 C 77.671 46.844,77.344 46.741,77.167 46.520 C 77.029 46.349,76.716 46.161,76.470 46.104 C 76.224 46.046,75.911 45.887,75.774 45.750 C 75.636 45.612,75.404 45.500,75.257 45.500 C 74.813 45.500,73.803 45.018,73.904 44.854 C 74.028 44.653,73.605 44.500,72.923 44.500 C 72.609 44.500,72.276 44.380,72.145 44.218 C 71.948 43.975,71.951 43.954,72.167 44.064 C 72.304 44.134,72.271 44.073,72.093 43.929 C 71.890 43.764,71.442 43.667,70.885 43.667 C 70.092 43.667,69.964 43.602,70.014 43.227 C 70.038 43.046,69.603 42.839,69.194 42.836 C 68.960 42.834,68.833 42.751,68.875 42.626 C 68.987 42.289,68.620 42.056,68.041 42.096 C 67.744 42.117,67.500 42.071,67.500 41.994 C 67.500 41.918,67.306 41.890,67.070 41.933 C 66.833 41.976,66.676 41.953,66.719 41.881 C 66.881 41.613,66.392 41.362,65.576 41.294 C 65.351 41.276,65.167 41.205,65.167 41.137 C 65.167 40.751,64.455 40.395,63.737 40.422 C 63.075 40.447,62.953 40.398,62.824 40.059 C 62.726 39.802,62.541 39.667,62.287 39.667 C 62.074 39.667,61.810 39.577,61.700 39.467 C 61.590 39.357,61.500 39.328,61.500 39.404 C 61.500 39.479,61.388 39.448,61.252 39.335 C 61.115 39.222,61.035 39.078,61.073 39.017 C 61.111 38.955,60.791 38.890,60.363 38.871 C 59.877 38.850,59.511 38.738,59.390 38.574 C 59.158 38.257,58.053 38.126,57.611 38.363 C 57.384 38.484,57.326 38.481,57.406 38.350 C 57.469 38.249,57.440 38.167,57.343 38.167 C 57.246 38.167,57.157 38.204,57.146 38.250 M261.245 79.833 C 261.245 85.012,261.266 87.131,261.292 84.542 C 261.317 81.952,261.317 77.715,261.292 75.125 C 261.266 72.535,261.245 74.654,261.245 79.833 M116.093 76.196 C 115.940 76.455,115.760 76.667,115.694 76.667 C 115.628 76.667,115.276 77.089,114.912 77.606 C 114.123 78.727,113.045 79.833,112.743 79.833 C 112.623 79.833,112.303 80.021,112.030 80.250 C 111.758 80.479,111.387 80.667,111.207 80.667 C 111.026 80.667,110.699 80.803,110.481 80.970 C 110.262 81.136,109.821 81.374,109.500 81.497 C 109.179 81.621,108.804 81.812,108.667 81.922 C 108.529 82.032,108.192 82.175,107.917 82.240 C 107.642 82.305,107.267 82.496,107.083 82.664 C 106.900 82.832,106.431 83.055,106.042 83.158 C 105.652 83.262,105.333 83.403,105.333 83.473 C 105.333 83.544,104.958 83.736,104.500 83.900 C 104.042 84.065,103.667 84.262,103.667 84.337 C 103.667 84.412,103.423 84.525,103.125 84.589 C 102.827 84.652,102.467 84.806,102.325 84.931 C 102.183 85.056,101.737 85.274,101.333 85.417 C 100.930 85.559,100.484 85.779,100.342 85.906 C 100.200 86.032,99.773 86.218,99.394 86.319 C 99.016 86.420,98.617 86.610,98.508 86.740 C 98.399 86.871,98.072 87.031,97.780 87.094 C 97.489 87.158,97.071 87.350,96.853 87.522 C 96.634 87.693,96.330 87.833,96.177 87.833 C 96.023 87.833,95.644 88.021,95.333 88.250 C 95.023 88.479,94.599 88.667,94.391 88.667 C 94.183 88.667,93.842 88.845,93.632 89.062 C 93.415 89.287,92.965 89.501,92.593 89.557 C 92.232 89.612,91.872 89.771,91.793 89.911 C 91.714 90.052,91.514 90.167,91.349 90.167 C 91.183 90.167,90.625 90.392,90.110 90.667 C 89.595 90.942,89.068 91.167,88.940 91.167 C 88.812 91.167,88.618 91.274,88.509 91.406 C 88.400 91.538,88.100 91.691,87.842 91.748 C 87.585 91.805,87.126 92.034,86.822 92.259 C 86.517 92.483,86.106 92.667,85.908 92.667 C 85.709 92.667,85.287 92.843,84.970 93.058 C 84.654 93.273,84.174 93.503,83.906 93.571 C 83.637 93.638,83.304 93.790,83.167 93.909 C 83.029 94.027,82.641 94.213,82.305 94.321 C 81.969 94.429,81.610 94.618,81.507 94.741 C 81.405 94.864,81.072 95.012,80.767 95.069 C 80.462 95.126,80.086 95.313,79.932 95.483 C 79.778 95.654,79.373 95.838,79.033 95.892 C 78.693 95.946,78.285 96.143,78.126 96.329 C 77.967 96.515,77.693 96.667,77.519 96.667 C 77.344 96.667,76.773 96.892,76.250 97.167 C 75.727 97.442,75.195 97.667,75.066 97.667 C 74.938 97.667,74.833 97.738,74.833 97.825 C 74.833 97.913,74.573 98.056,74.255 98.144 C 73.937 98.232,73.455 98.461,73.185 98.653 C 72.916 98.845,72.445 99.050,72.139 99.109 C 71.833 99.167,71.455 99.347,71.299 99.509 C 71.143 99.671,70.768 99.858,70.466 99.924 C 70.164 99.989,69.738 100.184,69.519 100.355 C 69.301 100.526,69.011 100.667,68.875 100.667 C 68.740 100.667,68.356 100.814,68.023 100.993 C 67.689 101.173,67.135 101.431,66.792 101.568 C 66.448 101.705,66.167 101.886,66.167 101.970 C 66.167 102.055,65.884 102.169,65.538 102.225 C 65.192 102.280,64.653 102.514,64.339 102.746 C 64.025 102.977,63.589 103.167,63.369 103.167 C 63.149 103.167,62.779 103.317,62.545 103.500 C 62.312 103.683,62.008 103.833,61.869 103.833 C 61.729 103.833,61.202 104.029,60.697 104.268 C 58.980 105.080,55.865 104.652,54.500 103.416 C 54.348 103.279,54.165 103.167,54.094 103.167 C 54.023 103.167,53.817 102.979,53.637 102.750 C 53.448 102.510,53.138 102.333,52.905 102.333 C 52.563 102.333,52.497 102.249,52.481 101.792 C 52.470 101.485,52.427 101.382,52.383 101.555 C 52.251 102.066,52.481 102.667,52.809 102.667 C 52.975 102.667,53.416 102.948,53.789 103.292 C 55.551 104.915,59.082 105.531,60.963 104.542 C 61.356 104.335,61.769 104.167,61.881 104.167 C 61.994 104.167,62.438 103.979,62.869 103.750 C 63.299 103.521,63.753 103.333,63.877 103.333 C 64.001 103.333,64.356 103.146,64.667 102.917 C 64.977 102.688,65.430 102.500,65.673 102.500 C 65.916 102.500,66.245 102.357,66.403 102.182 C 66.562 102.007,66.892 101.817,67.137 101.760 C 67.383 101.703,68.296 101.311,69.167 100.889 C 70.037 100.466,71.192 99.906,71.732 99.644 C 72.272 99.381,72.845 99.167,73.006 99.167 C 73.166 99.167,73.339 99.058,73.390 98.925 C 73.441 98.793,73.803 98.598,74.194 98.493 C 74.585 98.387,75.086 98.158,75.308 97.984 C 75.530 97.809,75.810 97.667,75.930 97.667 C 76.051 97.667,76.502 97.479,76.933 97.250 C 77.364 97.021,77.806 96.833,77.916 96.833 C 78.025 96.833,78.251 96.683,78.417 96.500 C 78.583 96.317,78.926 96.167,79.180 96.167 C 79.433 96.167,79.864 95.979,80.136 95.750 C 80.409 95.521,80.722 95.333,80.832 95.333 C 80.942 95.333,81.757 94.987,82.641 94.564 C 85.873 93.018,86.280 92.833,86.449 92.833 C 86.544 92.833,86.806 92.688,87.032 92.510 C 87.258 92.333,87.662 92.134,87.930 92.068 C 88.198 92.003,88.596 91.811,88.814 91.641 C 89.033 91.472,89.295 91.333,89.397 91.332 C 89.500 91.331,89.958 91.146,90.417 90.920 C 90.875 90.695,91.313 90.508,91.391 90.505 C 91.468 90.502,91.736 90.355,91.984 90.178 C 92.233 90.001,92.657 89.803,92.927 89.739 C 93.196 89.675,93.567 89.491,93.750 89.331 C 93.933 89.170,94.271 88.988,94.500 88.926 C 94.942 88.806,95.620 88.500,98.173 87.268 C 99.047 86.845,99.839 86.500,99.932 86.500 C 100.026 86.500,100.356 86.313,100.667 86.083 C 100.977 85.854,101.399 85.667,101.604 85.667 C 101.809 85.667,102.093 85.550,102.235 85.407 C 102.378 85.265,102.829 85.034,103.237 84.895 C 103.645 84.756,104.068 84.535,104.177 84.405 C 104.285 84.274,104.485 84.167,104.621 84.167 C 104.846 84.167,105.586 83.827,106.917 83.112 C 107.192 82.964,107.604 82.760,107.833 82.658 C 109.882 81.747,112.020 80.673,112.346 80.393 C 112.491 80.269,112.717 80.167,112.849 80.167 C 113.122 80.167,114.257 79.068,115.001 78.083 C 115.278 77.717,115.691 77.209,115.919 76.955 C 116.147 76.702,116.333 76.383,116.333 76.247 C 116.333 76.091,116.496 76.000,116.778 76.000 C 117.265 76.000,117.183 75.785,116.682 75.748 C 116.502 75.735,116.254 75.923,116.093 76.196 " stroke="none" fill="#74e3ec" fill-rule="evenodd"></path></g></svg>